<?xml version="1.0" encoding="UTF-8" standalone="no"?>
<svg
   xmlns:dc="http://purl.org/dc/elements/1.1/"
   xmlns:cc="http://creativecommons.org/ns#"
   xmlns:rdf="http://www.w3.org/1999/02/22-rdf-syntax-ns#"
   xmlns:svg="http://www.w3.org/2000/svg"
   xmlns="http://www.w3.org/2000/svg"
   xmlns:sodipodi="http://sodipodi.sourceforge.net/DTD/sodipodi-0.dtd"
   xmlns:inkscape="http://www.inkscape.org/namespaces/inkscape"
   version="1.1"
   id="svg1525"
   xml:space="preserve"
   width="3299.6807"
   height="3314.5303"
   viewBox="0 0 3299.6807 3314.5303"
   sodipodi:docname="3400_3_09.eps"
   inkscape:version="1.0.1 (c497b03c, 2020-09-10)"><metadata
     id="metadata1531"><rdf:RDF><cc:Work
         rdf:about=""><dc:format>image/svg+xml</dc:format><dc:type
           rdf:resource="http://purl.org/dc/dcmitype/StillImage" /><dc:title></dc:title></cc:Work></rdf:RDF></metadata><defs
     id="defs1529" /><sodipodi:namedview
     pagecolor="#ffffff"
     bordercolor="#666666"
     borderopacity="1"
     objecttolerance="10"
     gridtolerance="10"
     guidetolerance="10"
     inkscape:pageopacity="0"
     inkscape:pageshadow="2"
     inkscape:window-width="1792"
     inkscape:window-height="959"
     id="namedview1527"
     showgrid="false"
     inkscape:zoom="0.1378125"
     inkscape:cx="1937.5998"
     inkscape:cy="1127.7878"
     inkscape:window-x="81"
     inkscape:window-y="25"
     inkscape:window-maximized="0"
     inkscape:current-layer="g1535" /><g
     id="g1533"
     inkscape:groupmode="layer"
     inkscape:label="ink_ext_XXXXXX"
     transform="matrix(1.3333333,0,0,-1.3333333,-725.43878,4113.7287)"><g
       id="g1535"
       transform="scale(0.1)"><g
         id="g1537"
         transform="scale(2.45399)" /><g
         id="g1541"
         transform="scale(1.70525)"><path
           d="m 12513.1,3515.02 c -2085.3,0 -3789.34,331.69 -3904.22,749.51 118.63,-40.87 243.71,-62.04 369.91,-62.69 2.06,0 4.11,0 6.1,0 v 0 0 c 2.46,0 4.99,0 7.45,0 124.61,0.82 250.11,21.58 371.32,63.1 27.68,9.44 55.13,20.06 82.34,31.67 l 735.3,315.26 c 94,40.29 179.2,95.59 252.9,162.62 88.4,-47.97 180.4,-89.2 275.2,-122.92 153.7,-53.6 300.8,-87.73 452.3,-119.39 150.8,-30.91 302.6,-54.13 454.6,-72.43 304.1,-36.36 609.1,-50.78 913.3,-51.49 304.3,1 609.3,16.48 913.2,53.37 151.9,18.65 303.5,42.22 454.2,73.42 151.4,32.02 298.3,66.5 451.4,120.27 57.3,20.53 113.6,43.75 168.6,69.56 90,-89.73 197.3,-163.03 317.5,-214.58 l 735.2,-315.26 c 164.2,-70.37 336.3,-104.44 506.1,-104.44 75.5,0 150.5,6.74 224.2,20.05 -434.5,-342.52 -1965.2,-595.63 -3786.9,-595.63"
           style="fill:#09a2e3;fill-opacity:1;fill-rule:nonzero;stroke:none"
           id="path1543" /></g><g
         id="g1545"
         transform="scale(1.19171)"><path
           d="m 14594.8,14324.3 -132.8,-564.8 -498.4,-2119.3 -2.3,-10.4 c -142.7,33 -281.4,67.3 -415.6,104.4 -19.9,5.4 -30.3,8.2 -30.3,8.2 -3585.31,989.8 -4233.63,3321.1 -3665.78,4074.2 177.18,235.4 392.18,361.8 605.88,423.7 205.6,59.7 417,54.7 614,-3.2 231.3,-67.7 442.8,-208.6 601.3,-403.8 537.2,-660.5 1558.7,-1088 2240.4,-1313.8 400.3,-132.4 683.6,-195.2 683.6,-195.2"
           style="fill:#60547b;fill-opacity:1;fill-rule:nonzero;stroke:none"
           id="path1547" /></g><g
         id="g1549"
         transform="scale(1.11898)"><path
           d="m 14251.4,12721.3 c -944.7,279.7 -1742,666.3 -2376.3,1152.9 -789.6,605.6 -1132,1217.2 -1280.3,1623.6 -104.6,286.9 -145.7,565.9 -124,802.2 l 607,-1177.1 c 70,-136 188.8,-236.5 334.5,-283.1 7.6,-2.5 15.3,-4.7 23,-6.8 534.1,-560 1195.9,-970.2 1716.7,-1237.9 119.6,-61.5 247.5,-90.7 373.3,-90.7 303.6,-0.1 595.4,169.6 732.1,464.1 149.9,322.6 327.3,534.5 460.4,662.2 13.9,13.3 30.1,19.1 45.7,19.1 21.6,0 42.4,-11 55,-28.3 -58.1,-101.8 -106.7,-205.6 -151.9,-311.6 -46.5,-106.7 -87.3,-215.6 -125.1,-325.3 -75.3,-219.7 -137.1,-443.7 -186.3,-670.5 -42.5,-196.1 -75.2,-394.1 -103.8,-592.8"
           style="fill:#433b78;fill-opacity:1;fill-rule:nonzero;stroke:none"
           id="path1551" /></g><g
         id="g1553"
         transform="scale(1.20895)"><path
           d="m 10602.2,15894.7 c -84.6,0 -169.3,-11.7 -252.2,-35.7 -206.9,-59.8 -380.61,-181.5 -516.35,-361.6 -186.11,-247.2 -196.54,-688.9 -27.3,-1153 137.23,-376.1 454.15,-942.2 1184.95,-1502.7 686.4,-526.6 1579,-926.6 2655,-1190 l 553.3,2353.7 c -501,129.7 -2079.1,596.9 -2816.2,1503.8 -200.9,247.3 -489.8,385.5 -781.2,385.5 m 3160.2,-4586.6 c -11.5,0 -23.2,1.3 -35,3.9 -3099.5,711.2 -3979.45,2282.9 -4213.95,2925.5 -208.19,570.9 -181.56,1111.9 71.3,1447.5 177.18,235.2 405.48,394.5 678.55,473.5 488.9,141.5 1023.6,-36.2 1362.1,-452.7 795.4,-978.6 2775.3,-1429 2795.1,-1433.4 40.7,-9.1 76.1,-34 98.2,-69.3 22.2,-35.4 29.3,-78 19.7,-118.6 L 13914,11428.3 c -16.8,-71.8 -80.8,-120.2 -151.6,-120.2"
           style="fill:#000072;fill-opacity:1;fill-rule:nonzero;stroke:none"
           id="path1555" /></g><g
         id="g1557"
         transform="scale(1.6425)"><path
           d="M 16080.1,6270.61 C 15896.2,5611.07 15380.9,5091.86 14721.4,4908 c -410.1,-114.1 -967.4,-200.98 -1713.1,-200.98 -745.7,0 -1303,86.88 -1713,200.98 -659.6,183.86 -1174.8,703.07 -1358.76,1362.61 -219.97,787.7 -210.41,1593.06 -130.47,2249.01 101.98,839.14 319.63,1433.42 319.63,1433.42 v 735.86 h 5736.7 l 28.5,-735.86 c 0,0 217.7,-594.28 319.6,-1433.42 80,-655.95 89.5,-1461.31 -130.4,-2249.01"
           style="fill:#ffffff;fill-opacity:1;fill-rule:nonzero;stroke:none"
           id="path1559" /></g><g
         id="g1561"
         transform="scale(1.63348)"><path
           d="m 16300,8566.65 c -697.1,-143.37 -1361.9,-232.38 -1980.9,-282.15 -1980.6,-160.52 -3496.4,77.81 -4131.9,207.65 -158.2,32.33 -262.04,57.67 -304.89,68.57 -14.51,3.91 -22.1,5.93 -22.1,5.93 67.28,553.73 184.59,1001.3 257.39,1243.91 32.7,109.46 50.5,222.44 52.4,336.24 1,31.6 0.4,63.2 -1.2,94.9 l -19.8,351 -8.6,155.2 H 15950 l 0.6,-17.8 23.1,-592.6 5,-129.5 c 0,0 218.8,-597.57 321.3,-1441.35"
           style="fill:#60547b;fill-opacity:1;fill-rule:nonzero;stroke:none"
           id="path1563" /></g><g
         id="g1565"
         transform="scale(1.50276)"><path
           d="m 14221.4,5287.07 c -1.1,0 -2.3,0 -3.4,0 -336,0.27 -671.4,15.9 -1002.9,55.1 -165.7,19.7 -330.5,44.71 -493.2,77.85 -161.3,33.14 -326.9,72.47 -474.3,123.98 -76.5,27.08 -151.1,59.09 -223.5,95.56 61.7,100.34 106.4,211.87 130.7,330.45 v 0 c 2.2,10.98 4.4,22.03 6.6,33.21 8.1,41.85 15.5,85.31 22.1,129.96 53,-19.5 107.1,-36.93 162.1,-52.24 448.2,-124.7 1057.3,-219.66 1872.4,-219.66 815,0 1424.1,94.96 1872.3,219.66 13.9,3.86 27.6,7.85 41.4,11.98 7.9,-51.44 17,-100.95 26.6,-148.06 26.6,-129.7 75,-252 141.7,-362.54 -36.3,-15.37 -73,-29.54 -110.2,-42.58 -147.9,-51.31 -313.6,-90.24 -475.2,-122.98 -162.8,-32.8 -327.7,-57.42 -493.5,-76.79 -330.6,-38.33 -665,-52.9 -999.7,-52.9"
           style="fill:#b2b2d4;fill-opacity:1;fill-rule:nonzero;stroke:none"
           id="path1567" /></g><g
         id="g1569"
         transform="scale(1.65256)"><path
           d="m 15824.9,9903.67 c 76.1,-140.2 132.6,-286.58 182.2,-435.68 50.1,-148.86 89.4,-300.99 121.5,-454.57 61.6,-307.71 104.8,-619.34 127,-933.1 44.4,-626.72 5.6,-1265.98 -161,-1880.66 -87.5,-316.42 -250.6,-612.26 -474.1,-853.77 -222.8,-241.62 -503.9,-430.9 -814.5,-542.13 -158.1,-55.49 -309.7,-91.07 -465.9,-124.1 -155.5,-32.2 -312,-56.52 -468.7,-75.77 -313.6,-38.06 -628.3,-54.04 -942.2,-55.06 -314,0.72 -628.8,15.61 -942.5,53.13 -156.9,18.88 -313.5,42.84 -469.1,74.73 -156.4,32.68 -308.1,67.9 -466.7,123.2 -311.4,110.8 -593.7,299.84 -817.7,541.77 -224.2,242.05 -388.4,538.5 -476.63,856 -167.74,615.47 -207.44,1255.63 -163.75,1883.27 10.47,157.21 27.3,313.69 48.29,469.57 21.3,155.76 45.87,311.15 79.09,464.74 33.34,153.57 75.16,305.28 126.17,454.02 25.6,74.31 53.19,148.01 84.72,220.26 30.92,72.62 64.26,143.78 104.21,213.43 8.5,14.95 27.6,20.09 42.5,11.56 11.5,-6.6 17.2,-19.49 15.3,-31.83 l -0.1,-0.85 c -48.6,-306.61 -103.22,-607.84 -154.05,-908.95 -52.46,-300.69 -95,-603.25 -112.55,-907.32 -37.58,-607.12 6.6,-1220.66 169.74,-1800.91 79.76,-279.02 226.96,-537.59 424.36,-749.32 196.8,-211.98 444.2,-377.36 716.9,-473.87 134,-46.84 284.6,-82.6 431.3,-112.74 147.9,-30.13 297.8,-52.88 448.5,-70.8 301.5,-35.64 606.5,-49.86 912,-50.1 305.4,-0.12 610.5,13.13 912.2,48.11 150.7,17.61 300.7,39.99 448.7,69.83 147,29.77 297.6,65.17 432.2,111.82 273.5,96.04 522.1,261.29 720.2,473.51 198.1,212.34 346.4,471.45 426.8,751.56 164.2,581.04 209.3,1195.48 172.6,1803.57 -18,304.44 -58,607.91 -113,908.53 l -82.7,451.73 c -27.9,150.73 -56.8,302.44 -82.8,454.68 l -0.1,1.16 c -3.1,18.03 9,35.09 27,38.18 14.3,2.42 28,-4.78 34.6,-16.83"
           style="fill:#000072;fill-opacity:1;fill-rule:nonzero;stroke:none"
           id="path1571" /></g><g
         id="g1573"
         transform="scale(1.13112)"><path
           d="m 14211.5,10898.4 c 0,0 965.4,145.4 1679.7,-992.58 408.8,-651.21 370.1,-1422.21 257.1,-1974.32 -89.6,-437.53 -388.8,-802.74 -799.3,-978.76 l -1108.5,-475.28 c -678.5,-290.86 -1475.7,-131.11 -1967.4,419.67 -273.5,306.25 -527.2,760.04 -572.5,1442.2 -147,2216.87 2510.9,2559.07 2510.9,2559.07"
           style="fill:#60547b;fill-opacity:1;fill-rule:nonzero;stroke:none"
           id="path1575" /></g><path
         d="m 16145.4,9508.6 c 39.1,-907.1 -471.9,-1665.9 -1141.2,-1694.7 -669.4,-28.8 -1243.7,683.2 -1282.7,1590.4 -39.1,907.1 471.9,1665.9 1141.2,1694.7 669.4,28.8 1243.7,-683.2 1282.7,-1590.4"
         style="fill:#ffffff;fill-opacity:1;fill-rule:nonzero;stroke:none"
         id="path1577" /><path
         d="m 15321.5,7165.2 c -3.4,0 -6.9,0 -10.4,0 3.5,0 7,0 10.4,0 v 0 m 12.7,0 c 212.5,1.4 426.5,36.8 633.2,107.6 -206.7,-70.8 -420.7,-106.2 -633.2,-107.6"
         style="fill:#218db4;fill-opacity:1;fill-rule:nonzero;stroke:none"
         id="path1579" /><path
         d="m 13891.2,7791.6 c -0.1,0.1 -0.2,0.2 -0.3,0.3 0.1,-0.1 0.2,-0.2 0.3,-0.3 m -4.3,4.8 c -1.5,1.7 -3,3.4 -4.5,5.1 -0.6,0.6 -1.2,1.3 -1.8,1.9 0.6,-0.6 1.2,-1.3 1.8,-1.9 1.5,-1.7 3,-3.4 4.5,-5.1 m -6.8,7.6 c -0.4,0.5 -0.8,0.9 -1.2,1.4 0.4,-0.5 0.8,-0.9 1.2,-1.4 m -2,2.3 c -0.3,0.3 -0.6,0.7 -1,1 0.3,-0.3 0.7,-0.7 1,-1 m -1.9,2.1 c -0.3,0.3 -0.5,0.5 -0.8,0.8 0.3,-0.3 0.5,-0.5 0.8,-0.8 m -1.9,2.1 c -0.2,0.2 -0.3,0.4 -0.6,0.6 0.2,-0.2 0.4,-0.4 0.6,-0.6 m -1.7,2 c -0.2,0.2 -0.4,0.4 -0.5,0.6 0.1,-0.2 0.3,-0.4 0.5,-0.6 m -1.9,2.1 c -0.1,0.1 -0.2,0.2 -0.3,0.3 0.1,-0.1 0.3,-0.2 0.3,-0.3 m -1.8,2 c 0,0.1 0,0.1 0,0.1 0,0 0,0 0,-0.1"
         style="fill:#29b0c5;fill-opacity:1;fill-rule:nonzero;stroke:none"
         id="path1581" /><g
         id="g1583"
         transform="scale(1.12589)"><path
           d="m 16299.9,8688.95 c 0.1,412.92 -82.2,859.15 -333.2,1260.34 v 0 c 251,-401.19 333.3,-847.42 333.2,-1260.34 m -333.4,1260.61 v 0 c -0.1,0.08 -0.2,0.26 -0.3,0.44 0.1,-0.18 0.2,-0.36 0.3,-0.44 m -1.4,2.3 c -0.7,0.9 -1.1,1.69 -1.7,2.67 0.6,-0.89 1.1,-1.77 1.7,-2.67 m -2.5,3.91 c -0.3,0.45 -0.6,0.98 -0.8,1.43 0.2,-0.54 0.5,-0.9 0.8,-1.43 m -2.3,3.73 c -0.1,0.09 -0.1,0.09 -0.2,0.18 0.1,0 0.1,-0.09 0.2,-0.18 m -1.6,2.49 c -0.1,0.18 -0.1,0.18 -0.2,0.35 0,-0.09 0.1,-0.26 0.2,-0.35 m -1.5,2.49 c -0.2,0.18 -0.3,0.26 -0.4,0.53 0.1,-0.27 0.2,-0.35 0.4,-0.53 m -2,2.93 v 0.09 -0.09 m -1.6,2.57 c -0.1,0.09 -0.1,0.09 -0.1,0.18 0,-0.09 0,-0.09 0.1,-0.18"
           style="fill:#b2b2d4;fill-opacity:1;fill-rule:nonzero;stroke:none"
           id="path1585" /></g><g
         id="g1587"
         transform="scale(1.12589)"><path
           d="m 13608.4,6364.03 c -3.1,0 -6.2,0 -9.3,0 -471.4,2.49 -932.8,193.72 -1261.1,556.37 -0.1,0.08 -0.2,0.17 -0.3,0.26 -1.1,1.34 -2.4,2.67 -3.5,4 -1.4,1.51 -2.7,3.02 -4,4.53 -0.6,0.53 -1.1,1.15 -1.6,1.69 -0.2,0.17 -0.3,0.35 -0.5,0.53 -0.3,0.44 -0.7,0.8 -1,1.24 -0.3,0.27 -0.6,0.53 -0.8,0.8 -0.2,0.27 -0.6,0.62 -0.8,0.89 -0.3,0.35 -0.6,0.62 -0.8,0.98 -0.3,0.27 -0.5,0.44 -0.8,0.71 -0.2,0.35 -0.6,0.8 -0.9,1.15 -0.2,0.18 -0.4,0.36 -0.6,0.54 -0.2,0.44 -0.6,0.79 -0.9,1.24 -0.2,0.17 -0.4,0.36 -0.5,0.53 -0.4,0.45 -0.8,0.89 -1.2,1.33 0,0.09 -0.2,0.18 -0.3,0.27 -0.4,0.53 -0.9,0.98 -1.3,1.51 0,0.09 0,0.09 0,0.09 -81.7,92.9 -161.3,199.13 -233.9,320.72 -87.6,211.39 -152.8,458.31 -179.6,748.48 44.2,-62.44 90.1,-119.64 136.7,-171.87 107.6,-120.44 231.5,-220 366.2,-297.72 203.7,-366.37 527.1,-602.9 884,-602.9 11.6,0 23.3,0.27 34.9,0.8 376.5,16.17 696.6,292.39 872,697.58 l 587.5,251.89 c 366.3,157.03 633.3,482.91 713.2,873.27 96.8,473.14 132.5,1126.31 -187.8,1691.96 261.4,-145.5 544.9,-388.1 797.1,-789.92 6.3,-10.03 11.6,-20.34 17.6,-30.38 v 0 0 c -43.4,106.85 -95.4,212.37 -159.4,314.69 251,-401.19 333.3,-847.42 333.2,-1260.34 -0.1,-242.12 -28.4,-472.87 -67.8,-676.26 -2.8,-14.92 -5.7,-29.67 -8.8,-44.32 v 0 c -89.9,-439.57 -390.6,-806.48 -803,-983.32 l -1113.6,-477.48 c -41.2,-17.59 -82.7,-33.67 -124.7,-47.97 -183.6,-62.88 -373.6,-94.32 -562.4,-95.57 -3.7,0 -7.5,0 -11.2,0 m 2358.1,3585.53 c -0.5,0.79 -1,1.59 -1.4,2.3 -0.7,0.9 -1.1,1.78 -1.7,2.67 v 0 c 0.6,-0.98 1,-1.77 1.7,-2.67 v 0 c 0.3,-0.62 0.8,-1.24 1.1,-1.86 0.1,-0.18 0.2,-0.36 0.3,-0.44 m -3.3,5.33 c -0.5,0.7 -1,1.5 -1.5,2.31 h 0.1 c 0.2,-0.45 0.5,-0.98 0.8,-1.43 0.2,-0.26 0.3,-0.62 0.6,-0.88 m -2,3.1 c -0.4,0.63 -0.8,1.16 -1.1,1.78 0,0 0,0 0,-0.09 0.1,-0.09 0.1,-0.09 0.2,-0.18 0.2,-0.53 0.6,-0.97 0.9,-1.51 m -2,3.11 c -0.3,0.45 -0.5,0.89 -0.8,1.34 0,-0.1 0,-0.1 0.1,-0.1 0.1,-0.17 0.1,-0.17 0.2,-0.35 0.2,-0.27 0.3,-0.62 0.5,-0.89 m -1.7,2.76 c -0.2,0.35 -0.5,0.71 -0.8,1.15 h 0.1 c 0.1,-0.27 0.2,-0.35 0.4,-0.53 0.1,-0.27 0.2,-0.45 0.3,-0.62 m -1.8,2.75 c -0.2,0.35 -0.4,0.62 -0.6,0.98 0,0 0,0 0.1,-0.09 v -0.09 c 0.2,-0.27 0.4,-0.53 0.5,-0.8 m -1.8,2.93 c -0.2,0.27 -0.3,0.44 -0.4,0.62 v 0 c 0,-0.09 0,-0.09 0.1,-0.18 0.1,-0.09 0.2,-0.26 0.3,-0.44 m -1.7,2.67 c -0.1,0.17 -0.3,0.44 -0.4,0.53 0.1,-0.18 0.2,-0.36 0.4,-0.53 m -1.8,2.75 c -0.1,0.09 -0.2,0.26 -0.3,0.35 0.1,-0.09 0.2,-0.26 0.3,-0.35 m -1.8,2.75 c 0,0.09 -0.1,0.09 -0.1,0.18 0,-0.09 0.1,-0.18 0.1,-0.18 m -1.5,2.49 c -0.1,0.09 -0.2,0.18 -0.2,0.26 0,-0.08 0.1,-0.17 0.2,-0.26 m -1.8,2.66 v 0.18 c 0,-0.09 0,-0.09 0,-0.18 m -1.6,2.58 c 0,0.09 -0.1,0.09 -0.1,0.17 0.1,-0.08 0.1,-0.08 0.1,-0.17"
           style="fill:#433b78;fill-opacity:1;fill-rule:nonzero;stroke:none"
           id="path1589" /></g><path
         d="m 14964.9,7813 c -401.9,0 -766,266.3 -995.3,678.8 263,-151.8 562.5,-229.9 865.9,-229.9 235.5,0 473.5,47.1 698.3,143.5 l 452.1,193.9 c -197.4,-456.2 -557.8,-767.2 -981.7,-785.4 -13.1,-0.6 -26.3,-0.9 -39.3,-0.9"
         style="fill:#b2b2d4;fill-opacity:1;fill-rule:nonzero;stroke:none"
         id="path1591" /><path
         d="m 13241.3,9349.8 v 0 0 m -0.8,8.9 c 0,0.2 0,0.3 0,0.5 0,-0.2 0,-0.3 0,-0.5 m -0.7,8.8 c -0.1,0.4 -0.1,0.7 -0.1,1 0,-0.4 0,-0.6 0.1,-1 m -0.8,9.1 c 0,0.4 -0.1,0.6 -0.1,1 0,-0.3 0.1,-0.7 0.1,-1 m -0.3,3.5 c 0,0.3 0,0.7 -0.1,1.1 0.1,-0.4 0.1,-0.8 0.1,-1.1 m -0.4,5.3 c -0.1,0.5 -0.1,0.9 -0.1,1.4 0,-0.5 0,-0.9 0.1,-1.4 m -0.3,3.6 c 0,0.6 -0.1,1.1 -0.1,1.7 0,-0.5 0.1,-1.1 0.1,-1.7 m -0.4,4.7 c 0,0.8 -0.1,1.5 -0.2,2.3 0.1,-0.7 0.2,-1.5 0.2,-2.3 m -0.3,4.1 c 0,0.8 -0.1,1.6 -0.2,2.3 0.1,-0.8 0.2,-1.5 0.2,-2.3 m -0.3,3.9 c -0.1,1.2 -0.2,2.4 -0.2,3.5 0,-1.2 0.1,-2.3 0.2,-3.5 m -0.4,5.2 c 0,0.7 -0.1,1.5 -0.1,2.2 0,-0.7 0.1,-1.5 0.1,-2.2 m -0.3,3.9 c 0,1.2 -0.1,2.4 -0.2,3.6 0.1,-1.2 0.2,-2.5 0.2,-3.6 m -0.3,4.8 c -0.1,1 -0.1,1.8 -0.2,2.8 0.1,-1 0.1,-1.8 0.2,-2.8 m -0.3,4.3 c -0.1,1.2 -0.2,2.4 -0.3,3.7 0.1,-1.3 0.2,-2.5 0.3,-3.7 m -0.3,4.5 c -0.1,1.1 -0.2,2.1 -0.2,3.2 0,-1.1 0.1,-2.1 0.2,-3.2 m -0.3,4.4 c -0.1,1.4 -0.2,2.7 -0.3,4 -1.8,26.9 -3.2,53.6 -4.2,80.1 1,-26.5 2.4,-53.2 4.2,-80.1 0.1,-1.3 0.2,-2.7 0.3,-4"
         style="fill:#b1fef6;fill-opacity:1;fill-rule:nonzero;stroke:none"
         id="path1593" /><g
         id="g1595"
         transform="scale(1.10287)"><path
           d="m 16300,10157 c -0.1,0.1 -0.1,0.2 -0.2,0.3 0.1,-0.1 0.1,-0.2 0.2,-0.3"
           style="fill:#ffffff;fill-opacity:1;fill-rule:nonzero;stroke:none"
           id="path1597" /></g><path
         d="m 16088.7,12329 c 11.6,1.3 30.1,2.9 54.9,4 -24.8,-1.1 -43.4,-2.7 -54.9,-4"
         style="fill:#9999c7;fill-opacity:1;fill-rule:nonzero;stroke:none"
         id="path1599" /><g
         id="g1601"
         transform="scale(1.10264)"><path
           d="m 12339.3,7416.03 c -162.2,271.62 -290.4,618.34 -330.6,1063.45 v 0 c -0.2,2.72 -0.4,5.36 -0.7,8.08 0,0.17 0,0.27 0,0.45 -0.3,2.45 -0.4,5.08 -0.6,7.53 -0.1,0.36 -0.1,0.54 -0.1,0.9 -0.3,2.45 -0.5,4.9 -0.6,7.35 0,0.27 -0.1,0.63 -0.1,0.91 0,0.72 -0.1,1.54 -0.2,2.26 0,0.28 0,0.64 -0.1,1 -0.1,1.27 -0.2,2.54 -0.3,3.81 -0.1,0.45 -0.1,0.82 -0.1,1.27 -0.1,0.73 -0.1,1.36 -0.1,1.99 0,0.55 -0.1,1.09 -0.1,1.55 -0.1,0.9 -0.2,1.81 -0.3,2.72 0,0.72 -0.1,1.45 -0.2,2.08 0,0.55 0,1.09 -0.1,1.64 0,0.72 -0.1,1.36 -0.2,2.08 0,0.55 0,1 -0.1,1.45 0,1.09 -0.1,2.09 -0.1,3.18 -0.1,0.54 -0.1,0.99 -0.2,1.54 0,0.63 -0.1,1.36 -0.1,1.99 -0.1,0.55 -0.1,1 -0.2,1.55 0,0.99 -0.1,2.17 -0.2,3.26 0,0.36 -0.1,0.72 -0.1,1.09 -0.1,0.91 -0.1,1.63 -0.1,2.54 0,0.45 -0.1,0.9 -0.1,1.36 -0.1,1.09 -0.2,2.17 -0.3,3.35 0,0.27 0,0.46 0,0.73 -0.1,1 -0.2,1.9 -0.2,2.9 -0.1,0.36 -0.1,0.73 -0.1,1.09 -0.1,1.18 -0.2,2.45 -0.2,3.63 -1.7,24.39 -2.9,48.61 -3.9,72.64 -88.7,2209 2579.7,2552.5 2579.7,2552.5 0,0 4.2,0.7 12.4,1.5 10.4,1.1 27.3,2.6 49.8,3.6 14.5,0.6 31.4,1.1 50.4,1.1 276.4,0 1008.2,-92.3 1588.5,-989.9 -281.3,435.1 -598.1,680.4 -881.5,818.3 66,-79.3 130.8,-168.1 193.5,-267.9 14.8,-23.6 28.9,-47.3 42.4,-71.2 -338,188.2 -640.1,217.7 -796.4,217.7 -71.6,0 -112.7,-6.2 -112.7,-6.2 0,0 -2726.6,-351 -2575.8,-2625.17 1.8,-27.29 4,-54.23 6.5,-80.89 -49.3,69.74 -96.4,146.01 -139.7,229.36 46.7,-411.65 169.5,-736.33 323,-993.62 0.1,-0.18 0.2,-0.36 0.2,-0.55 M 16300,10164.4 c -0.1,0.1 -0.1,0.3 -0.2,0.4 0,-0.1 0.2,-0.3 0.2,-0.4 m -1.7,2.8 c -0.2,0.2 -0.4,0.5 -0.6,0.8 0.2,-0.3 0.4,-0.6 0.6,-0.8 m -1.7,2.6 c -0.2,0.4 -0.6,0.9 -0.9,1.4 0.3,-0.5 0.7,-1 0.9,-1.4 m -1.7,2.7 c -0.2,0.5 -0.6,0.9 -0.9,1.5 0.3,-0.6 0.7,-1 0.9,-1.5 m -1.7,2.6 c -0.3,0.6 -0.6,1.1 -1,1.7 0.4,-0.6 0.7,-1.1 1,-1.7 m -1.6,2.7 c -0.5,0.6 -0.8,1.3 -1.3,2 0.4,-0.7 0.9,-1.4 1.3,-2 m -1.7,2.6 c -0.4,0.7 -0.9,1.5 -1.3,2.1 0.4,-0.7 0.9,-1.4 1.3,-2.1 m -1.7,2.6 c -0.4,0.9 -1,1.6 -1.4,2.3 0.5,-0.8 0.9,-1.4 1.4,-2.3 m -1.7,2.7 c -0.5,0.8 -1,1.6 -1.6,2.4 0.6,-0.8 1.1,-1.6 1.6,-2.4 m -1.6,2.6 c -0.6,0.8 -1,1.5 -1.5,2.4 0.5,-0.9 1,-1.7 1.5,-2.4 m -1.8,2.6 c -0.5,0.8 -1,1.7 -1.5,2.5 0.5,-0.8 1,-1.6 1.5,-2.5 m -1.6,2.7 c -0.5,0.8 -1.1,1.6 -1.6,2.4 0.5,-0.8 1.1,-1.6 1.6,-2.4"
           style="fill:#bfbbca;fill-opacity:1;fill-rule:nonzero;stroke:none"
           id="path1603" /></g><g
         id="g1605"
         transform="scale(1.10287)"><path
           d="m 16300,10157 c -0.1,0.1 -0.1,0.2 -0.2,0.3 v 0 c 0.1,-0.1 0.1,-0.2 0.2,-0.3 v 0"
           style="fill:#e0e0ee;fill-opacity:1;fill-rule:nonzero;stroke:none"
           id="path1607" /></g><g
         id="g1609"
         transform="scale(1.11388)"><path
           d="m 12214.6,7341.74 c -152,254.7 -273.5,576.1 -319.8,983.6 43,-82.51 89.6,-158.01 138.3,-227.05 27.1,-293.3 93,-542.88 181.5,-756.55 M 16300,9738.51 c -6.1,10.14 -11.4,20.56 -17.8,30.7 -254.9,406.19 -541.4,651.29 -805.7,798.49 -13.4,23.6 -27.4,47.1 -42,70.5 -62.1,98.8 -126.3,186.7 -191.5,265.2 280.4,-136.5 594,-379.4 872.5,-810.1 0,-0.1 0.1,-0.1 0.1,-0.2 0.5,-0.8 1.1,-1.6 1.6,-2.4 l 0.1,-0.2 c 0.5,-0.8 1,-1.6 1.5,-2.4 0.1,-0.1 0.2,-0.2 0.3,-0.3 0.4,-0.8 0.9,-1.5 1.4,-2.3 0,-0.1 0.1,-0.1 0.1,-0.2 0.6,-0.8 1.1,-1.6 1.6,-2.4 0,-0.1 0.1,-0.3 0.2,-0.4 0.5,-0.7 1,-1.4 1.5,-2.2 0,-0.1 0.2,-0.4 0.3,-0.6 0.5,-0.6 0.9,-1.3 1.4,-2 0.1,-0.2 0.1,-0.4 0.3,-0.6 0.5,-0.7 0.8,-1.4 1.3,-2 0.2,-0.4 0.3,-0.7 0.6,-1 0.4,-0.5 0.7,-1.1 1,-1.6 0.3,-0.5 0.5,-0.8 0.8,-1.2 0.3,-0.5 0.6,-1 0.9,-1.4 0.3,-0.5 0.5,-0.9 0.8,-1.4 0.3,-0.4 0.6,-0.9 0.9,-1.3 0.4,-0.6 0.7,-1.2 1.1,-1.8 0.2,-0.3 0.3,-0.6 0.5,-0.8 0.6,-0.8 1,-1.6 1.6,-2.4 0,-0.1 0,-0.2 0.1,-0.3 0.7,-0.9 1.1,-1.8 1.7,-2.7 0.5,-0.7 1,-1.5 1.5,-2.3 0.1,-0.1 0.1,-0.2 0.2,-0.3 64.7,-103.44 117.2,-210.09 161.1,-318.09"
           style="fill:#b4b1c9;fill-opacity:1;fill-rule:nonzero;stroke:none"
           id="path1611" /></g><g
         id="g1613"
         transform="scale(1.14318)"><path
           d="m 14061.6,10783.4 h 0.4 z m 21.2,-163.5 c -6.3,-0.9 -641,-86.8 -1245.1,-428.2 -782.9,-442.44 -1151.7,-1091.59 -1096,-1929.43 35.1,-530.62 211.8,-977.44 524.8,-1328.22 435.6,-487.67 1142.5,-637.78 1758.8,-373.43 l 1096.8,470.27 c 357.1,153.17 616.7,470.88 694.3,849.99 103,503.07 146.3,1229.46 -232.5,1832.78 -636,1013.34 -1464,911.44 -1498.7,906.54 z m -682.3,-4518.08 c -519.3,0 -1023.7,213.7 -1379.9,612.67 -363.2,406.85 -567.8,920.33 -607.9,1525.92 -64,964.76 375.7,1740.48 1271.4,2243.19 651.2,365.5 1311.2,457.2 1355.1,463 67.2,9.6 1078.1,130.6 1823.9,-1057.64 436.9,-695.78 391.4,-1512.01 276.3,-2074.21 -99.3,-484.87 -431,-891.19 -887.4,-1086.87 l -1096.7,-470.27 c -244.9,-104.88 -501.7,-155.79 -754.8,-155.79"
           style="fill:#000072;fill-opacity:1;fill-rule:nonzero;stroke:none"
           id="path1615" /></g><g
         id="g1617"
         transform="scale(1.81987)"><path
           d="m 14647.9,6773.78 c 0,0 -599.9,90.39 -1043.9,-616.92 -254.1,-404.75 -230.1,-883.96 -159.8,-1227.12 55.7,-271.94 241.7,-498.93 496.8,-608.34 l 688.9,-295.4 c 421.8,-180.78 917.3,-81.49 1222.9,260.84 170,190.35 327.7,472.4 355.8,896.38 91.4,1377.91 -1560.7,1590.56 -1560.7,1590.56"
           style="fill:#60547b;fill-opacity:1;fill-rule:nonzero;stroke:none"
           id="path1619" /></g><g
         id="g1621"
         transform="scale(1.7822)"><path
           d="m 14918,5335.31 c -21.9,-508.98 264.8,-934.74 640.4,-950.9 375.6,-16.16 697.8,383.34 719.7,892.38 21.9,508.97 -264.8,934.74 -640.4,950.9 -375.5,16.16 -697.8,-383.35 -719.7,-892.38"
           style="fill:#ffffff;fill-opacity:1;fill-rule:nonzero;stroke:none"
           id="path1623" /></g><g
         id="g1625"
         transform="scale(1.79243)"><path
           d="m 15293.9,4101.97 c -133.6,0 -269.2,26.84 -398.5,82.29 l -699.6,299.93 c -227.8,97.69 -393.3,300.32 -442.8,542.12 -29.3,143.32 -51.1,315.1 -44.6,495.58 93.8,8.42 185.4,29.51 271.9,59.98 35.3,12.38 69.8,26.22 103.6,41.28 6.1,-41.23 13.2,-80.9 21,-118.83 50.2,-245.2 217.9,-449.9 448,-548.53 l 369,-158.22 c 110.2,-254.52 311.2,-428.03 547.7,-438.18 7.3,-0.33 14.6,-0.5 21.9,-0.5 224.3,0 427.3,148.57 555.3,378.7 84.6,48.82 162.4,111.36 230,187.01 7.7,8.7 15.5,17.63 23.2,26.78 -54.7,-202.18 -149.4,-379.26 -283,-528.89 -186.3,-208.77 -450.6,-320.52 -723.1,-320.52"
           style="fill:#433b78;fill-opacity:1;fill-rule:nonzero;stroke:none"
           id="path1627" /></g><g
         id="g1629"
         transform="scale(1.76458)"><path
           d="m 15736,4427.68 c -7.4,0 -14.8,0.17 -22.3,0.5 -240.2,10.32 -444.4,186.57 -556.3,445.1 l 256.2,-109.89 c 127.4,-54.63 262.2,-81.32 395.7,-81.32 172,0 341.7,44.26 490.7,130.29 -129.9,-233.77 -336.2,-384.68 -564,-384.68"
           style="fill:#b2b2d4;fill-opacity:1;fill-rule:nonzero;stroke:none"
           id="path1631" /></g><g
         id="g1633"
         transform="scale(1.79847)"><path
           d="m 16300,5390.15 c -110.8,749.42 -793.7,1073.41 -1220.8,1204.14 17.3,27.07 34.2,54.38 50.9,81.9 136.8,-41.37 302.2,-103.59 465.2,-195.06 456.9,-256.49 693.5,-623.03 704.7,-1090.98"
           style="fill:#bfbbca;fill-opacity:1;fill-rule:nonzero;stroke:none"
           id="path1635" /></g><g
         id="g1637"
         transform="scale(1.82569)"><path
           d="m 14528.9,6653.11 c -149.1,0 -555.1,-51.76 -880.8,-570.74 -237.2,-377.78 -210.1,-832.62 -145.6,-1147.63 48.6,-237.38 211.1,-436.32 434.7,-532.23 l 686.8,-294.47 c 386.1,-165.52 828.6,-71.53 1101.3,233.89 196,219.59 306.6,499.37 328.7,831.63 34.9,526.49 -197.7,933.89 -691.2,1210.94 -378.5,212.41 -770.8,264.78 -774.7,265.32 -0.6,0.06 -1.2,0.12 -1.7,0.22 -4.2,0.55 -24.5,3.07 -57.5,3.07 m 486.4,-2832.36 c -158.6,0 -319.4,31.83 -472.7,97.56 l -686.7,294.46 c -285.8,122.53 -493.5,376.95 -555.6,680.57 -72.1,352.03 -100.6,863.12 172.9,1298.8 467.1,744.1 1100.2,668.29 1142.1,662.26 27.6,-3.61 440.8,-61.07 848.5,-289.91 560.9,-314.79 836.2,-800.52 796.2,-1404.62 -25.2,-379.2 -153.3,-700.73 -380.7,-955.43 -223.1,-249.82 -538.9,-383.69 -864,-383.69"
           style="fill:#000072;fill-opacity:1;fill-rule:nonzero;stroke:none"
           id="path1639" /></g><g
         id="g1641"
         transform="scale(1.74526)"><path
           d="M 15621.3,7200.74 C 15214.4,6376.17 14290.8,5390.25 13455,5961.85 c -587.9,402.58 -363.1,1218.55 -53,1792.05 130.8,241.57 276.4,439.93 382.9,546.34 359.3,359.37 395.8,912.81 395.8,912.81 l -18,78.67 -113.8,496.72 880.1,254.46 362.2,104.6 c 153.1,-118.5 277,-244.93 377,-377.57 631.8,-839.76 276.7,-1912.67 -46.9,-2569.19"
           style="fill:#60547b;fill-opacity:1;fill-rule:nonzero;stroke:none"
           id="path1643" /></g><g
         id="g1645"
         transform="scale(1.52231)"><path
           d="m 15176.8,7587.01 c -10.9,9.72 -21.4,19.57 -31.6,29.62 -8.9,145.7 8.8,298.04 40.9,447.28 46.3,213.95 126.1,424.16 221.7,626.48 97.3,201.54 211.9,397.49 344.5,574.85 32.8,44.67 67.8,86.45 102.9,126.85 32.3,34.29 80.4,86.12 120.7,133.28 80.3,98.27 146.7,205.87 197.6,319.06 50.4,112.52 85,230.37 104.4,349.77 22.1,-209.39 -5.9,-544.61 -315.3,-833.45 0,0 -661.4,-886.47 -785.8,-1773.74"
           style="fill:#bfbbca;fill-opacity:1;fill-rule:nonzero;stroke:none"
           id="path1647" /></g><g
         id="g1649"
         transform="scale(1.70279)"><path
           d="m 14327.1,6065.18 c -77,0 -153.4,11.51 -227,34.36 -85.3,26.25 -167.4,67.83 -243.6,119.39 -149.2,102.18 -251.7,251.35 -292.7,427.95 -2.7,10.74 -5,21.61 -7.2,32.47 2.9,34.47 6.8,69 11.7,103.54 24.4,-21.73 50.9,-42.46 79.6,-62.14 154.9,-105.94 313,-152.1 469.9,-152.04 599.7,0.06 1178.6,675.25 1467,1259.76 259.6,526.2 541.4,1351.49 189.9,2057.74 59.5,24.32 118.1,49.63 176,76.12 19,-24.79 37.2,-50.04 54.8,-75.7 52.7,-81.28 102.2,-164.56 140.6,-253.35 38,-88.62 71.9,-179.42 93.6,-273.97 46.6,-187.98 60.3,-384.66 48.6,-581.05 -11.3,-196.62 -49.1,-392.7 -101.3,-585.56 -53.5,-192.69 -123,-382.09 -205.2,-566.49 -41,-92.02 -85.1,-184.17 -131.5,-271.85 -46.7,-88.32 -98.4,-174.18 -152.3,-258.57 -107.8,-168.67 -230.3,-328.06 -365.3,-473.7 -135.6,-144.64 -284.4,-276.54 -448.3,-377.03 -162.9,-100.3 -341.5,-171.42 -520.8,-179 -12.2,-0.58 -24.4,-0.88 -36.5,-0.88"
           style="fill:#433b78;fill-opacity:1;fill-rule:nonzero;stroke:none"
           id="path1651" /></g><g
         id="g1653"
         transform="scale(1.41742)"><path
           d="m 16285.9,8024.1 c -10.2,51.01 -16.7,103.22 -19.9,156.2 10.9,-10.79 22.2,-21.37 34,-31.82 -5.9,-41.48 -10.6,-82.96 -14.1,-124.38"
           style="fill:#8583af;fill-opacity:1;fill-rule:nonzero;stroke:none"
           id="path1655" /></g><g
         id="g1657"
         transform="scale(1.72885)"><path
           d="m 14337.9,9298.97 c 17.3,-107.46 12.2,-214.36 -4.2,-320.44 -17,-105.85 -47.7,-210.37 -92.4,-310.15 -44.7,-99.66 -103.2,-194.41 -173.9,-280.94 -35.5,-41.53 -77.8,-87.16 -106.3,-117.36 -30.9,-35.57 -61.7,-72.36 -90.6,-111.69 -116.8,-156.18 -217.7,-328.72 -303.4,-506.18 -84.1,-178.15 -154.4,-363.25 -195.2,-551.64 -40.4,-187.41 -54.7,-380.31 -12.6,-553.89 40.4,-173.93 141.4,-320.85 288.3,-421.5 75.1,-50.78 155.9,-91.73 239.9,-117.59 84,-26.03 171.5,-37.08 259.6,-32.97 176.6,7.46 352.5,77.51 513,176.3 161.3,98.97 307.9,228.88 441.5,371.35 132.9,143.45 253.6,300.43 359.8,466.55 53,83.12 103.9,167.69 149.9,254.68 45.7,86.36 89.2,177.11 129.5,267.75 81.1,181.63 149.5,368.17 202.1,557.95 51.5,189.95 88.8,383.08 99.9,576.74 11.5,193.42 -2,387.14 -47.9,572.29 -21.4,93.12 -54.7,182.55 -92.2,269.83 -37.8,87.46 -86.5,169.48 -138.4,249.53 -108.1,157.56 -242.2,298.61 -394.5,420.21 l -0.6,0.5 c -47,37.6 -54.7,106.2 -17.1,153.2 37,46.3 104.2,54.4 151.2,18.7 170.1,-129.6 325.1,-283.6 451.8,-460.9 60.7,-90.47 117.6,-184.06 162.4,-283.89 44.5,-99.61 83.8,-202.22 109.7,-308.18 55.3,-211.18 72.8,-429.77 62.8,-644.25 -10.2,-214.77 -46.7,-426 -101.8,-630.59 -55.7,-204.42 -127.8,-402.93 -212.5,-594.97 -42.3,-96.24 -86.7,-190.12 -136.2,-284.75 -49.4,-93.82 -102.9,-185.1 -160.3,-274 -114.3,-177.98 -244,-346.3 -389.2,-502.42 -146,-155.07 -307.9,-299.15 -495.5,-414.03 -93.6,-57.32 -193.3,-107.7 -300,-145.07 -106.4,-37.48 -220.3,-61.31 -336.6,-65.71 -116.2,-4.62 -234.3,11.23 -345.1,46.63 -111.1,35.22 -213.8,88.73 -307.3,153.33 -94.8,66.06 -179.6,150.97 -245.7,248.9 -66.2,97.93 -111.8,208.69 -137.6,320.97 -25.7,112.5 -33.9,226.45 -27.8,337.1 5.7,110.88 22.9,219.04 47.3,324.38 24.1,105.44 56.7,207.71 94.2,307.31 37.6,99.66 79.9,197.01 126.9,291.7 94.9,189.14 203.8,369.72 334.2,539.26 32.3,42.51 67.6,83.81 104.5,124.71 42.1,43.61 69.5,72.82 101.2,108.22 60.1,70.8 109.1,151.49 155.1,234.72 91.6,167.28 162.9,350.87 235.1,543.31 l 0.6,1.45 c 4.5,11.91 17.8,17.99 29.7,13.48 8,-3.01 13.4,-10.01 14.7,-17.94"
           style="fill:#000072;fill-opacity:1;fill-rule:nonzero;stroke:none"
           id="path1659" /></g><g
         id="g1661"
         transform="scale(1.17311)"><path
           d="m 14161.2,14128.8 c -1244.5,395.1 -2403.5,1058.1 -2847.4,2171.2 22.9,-9.7 45.6,-20.4 67.9,-31.8 13,-21.1 26.3,-42 39.9,-62.8 509.9,-781.4 1425.2,-1379.1 2728.7,-1784.2 l 9.1,-160.3 c 2.3,-44.1 3.1,-88.1 1.8,-132.1 v 0"
           style="fill:#433b78;fill-opacity:1;fill-rule:nonzero;stroke:none"
           id="path1663" /></g><g
         id="g1665"
         transform="scale(1.18712)"><path
           d="m 11247.4,16076.3 c -22,11.3 -44.5,21.8 -67.1,31.4 -25,62.7 -47.7,126.8 -68,192.3 4.3,-1.2 8.5,-2.4 12.7,-3.8 37.3,-74.7 78,-148 122.4,-219.9"
           style="fill:#000072;fill-opacity:1;fill-rule:nonzero;stroke:none"
           id="path1667" /></g><g
         id="g1669"
         transform="scale(1.51642)"><path
           d="m 14055.4,10481 c -239.1,0 -1462.8,16.3 -2690.2,332.2 -137.4,34.8 -274.4,73.9 -410.1,116.9 v 0 0 c 1.1,34 0.4,68.1 -1.4,102.2 l -7,124 c 304.8,-94.7 636.9,-175.8 996.1,-243.1 1015.9,-190.3 1926.2,-201.2 2119,-201.2 19,0 31.1,0 35.5,0.1 4.4,-0.1 16.2,-0.1 35,-0.1 191.3,0 1101.6,10.7 2117.5,200.9 l 50.2,-219 v 0 c -1031.7,-201 -1956.8,-212.9 -2160.9,-212.9 -27.4,0 -41.8,0.2 -41.8,0.2 0,0 -14.5,-0.2 -41.9,-0.2"
           style="fill:#433b78;fill-opacity:1;fill-rule:nonzero;stroke:none"
           id="path1671" /></g><g
         id="g1673"
         transform="scale(1.64791)"><path
           d="m 14999.4,9840.62 v 0 l -46.2,201.48 c 0.7,0.1 1.2,0.2 1.8,0.4 466.7,87.4 883.8,200.1 1250.2,337.7 35.6,-54.1 67.1,-109.1 94.8,-164.8 -151.9,-62.1 -308.1,-117.4 -466.2,-166.6 -277,-86.63 -559.6,-154.9 -834.4,-208.18"
           style="fill:#433b78;fill-opacity:1;fill-rule:nonzero;stroke:none"
           id="path1675" /></g><g
         id="g1677"
         transform="scale(1.6663)"><path
           d="m 16120.1,10102.7 c -27.3,55.1 -58.5,109.4 -93.8,162.9 51.7,19.3 102.1,39.1 151.6,59.5 43.1,-46.4 83.9,-94.7 122.1,-144.6 -59.2,-27.1 -119.1,-53 -179.9,-77.8"
           style="fill:#2f2976;fill-opacity:1;fill-rule:nonzero;stroke:none"
           id="path1679" /></g><g
         id="g1681"
         transform="scale(1.67761)"><path
           d="m 16190.1,10111.8 c -38,49.7 -78.5,97.6 -121.3,143.7 38.8,15.9 77.1,32.2 114.5,48.7 42.1,-45.9 80.9,-92.7 116.7,-140.3 -36.2,-17.8 -72.9,-35.2 -109.9,-52.1"
           style="fill:#000072;fill-opacity:1;fill-rule:nonzero;stroke:none"
           id="path1683" /></g><g
         id="g1685"
         transform="scale(1.88126)"><path
           d="m 9615.89,14881.9 c 0,-783 -634.78,-1417.8 -1417.77,-1417.8 -356.62,0 -682.89,131.9 -932.14,349.5 -297.94,259.5 -485.95,641.9 -485.95,1068.3 0,783.3 634.78,1418.1 1418.09,1418.1 346.58,0 663.97,-124.2 910.35,-330.8 310.21,-260.2 507.42,-650.9 507.42,-1087.3"
           style="fill:#60547b;fill-opacity:1;fill-rule:nonzero;stroke:none"
           id="path1687" /></g><g
         id="g1689"
         transform="scale(1.82675)"><path
           d="m 7651,14099 c -59.18,38.3 -115.4,80.6 -168.22,126.7 272.34,714 762.72,1521.4 1644.44,2074.3 57.7,-36.1 112.66,-76.1 164.61,-119.6 4.22,-3.5 8.38,-7.1 12.54,-10.6 -25.02,-14.9 -49.71,-30.1 -74.28,-45.6 -539.76,-340.3 -977.42,-814.2 -1300.78,-1408.6 -113.65,-209 -204.96,-417.3 -278.31,-616.6"
           style="fill:#433b78;fill-opacity:1;fill-rule:nonzero;stroke:none"
           id="path1691" /></g><g
         id="g1693"
         transform="scale(1.88126)"><path
           d="m 8146.77,16299.1 c 0.11,0 0.21,0 0.32,0 -0.05,0 -0.21,0 -0.32,0 m 1.91,0.1 c 0.16,0 0.38,0 0.54,0 -0.22,0 -0.32,0 -0.54,0 m 2.08,0 c 0.16,0 0.32,0 0.48,0 -0.16,0 -0.32,0 -0.48,0 m 2.02,0.1 c 0.16,0 0.32,0 0.47,0 -0.15,0 -0.31,0 -0.47,0 m 5.42,0.1 c 0.21,0.1 0.42,0.1 0.64,0.1 -0.22,0 -0.43,0 -0.64,-0.1 m 1.91,0.1 c 0.32,0 0.59,0 0.85,0 -0.21,0 -0.58,0 -0.85,0 m 2.08,0.1 c 0.32,0 0.64,0 0.9,0 -0.26,0 -0.58,0 -0.9,0 m 2.12,0 c 0.32,0 0.59,0 0.9,0 -0.26,0 -0.63,0 -0.9,0 m 2.08,0.1 c 0.31,0 0.69,0 1.01,0 -0.38,0 -0.64,0 -1.01,0 m 2.12,0 c 0.64,0 1.28,0 1.86,0 -0.58,0 -1.22,0 -1.86,0 m 2.87,0.1 c 0.43,0 0.85,0 1.28,0 -0.43,0 -0.85,0 -1.28,0 m 2.29,0 c 0.37,0 0.74,0 1.12,0 -0.38,0 -0.75,0 -1.12,0 m 2.12,0 c 0.38,0 0.8,0 1.17,0 -0.37,0 -0.79,0 -1.17,0 m 2.13,0.1 c 0.43,0 0.85,0 1.22,0 -0.42,0 -0.79,0 -1.22,0 m 2.13,0 c 0.42,0 0.9,0 1.33,0 -0.43,0 -0.91,0 -1.33,0 m 2.18,0 c 0.69,0 1.38,0 2.07,0 -0.69,0 -1.33,0 -2.07,0 m 2.49,0 c 0.59,0 1.12,0 1.71,0.1 -0.59,-0.1 -1.12,-0.1 -1.71,-0.1 m 2.56,0.1 c 0.42,0 0.9,0 1.33,0 -0.48,0 -0.86,0 -1.33,0 m 2.17,0 c 0.43,0 0.86,0 1.28,0 -0.42,0 -0.85,0 -1.28,0 m 2.19,0 c 0.42,0 0.9,0 1.32,0 -0.42,0 -0.85,0 -1.32,0 m 2.17,0 c 0.48,0 0.96,0 1.44,0 -0.48,0 -0.96,0 -1.44,0 m 2.13,0 c 0.69,0 1.44,0 2.18,0 -0.74,0 -1.44,0 -2.18,0"
           style="fill:#b1fef6;fill-opacity:1;fill-rule:nonzero;stroke:none"
           id="path1695" /></g><g
         id="g1697"
         transform="scale(1.88126)"><path
           d="m 6816.28,15200 c 140.7,614 679.49,1075.9 1330.49,1099.1 0.11,0 0.27,0 0.32,0 0.53,0 1.06,0 1.59,0.1 0.22,0 0.32,0 0.54,0 0.53,0 1.01,0 1.54,0 0.16,0 0.32,0 0.48,0 0.47,0.1 1.06,0.1 1.54,0.1 0.16,0 0.32,0 0.47,0 1.71,0.1 3.3,0.1 4.95,0.1 0.21,0.1 0.42,0.1 0.64,0.1 0.42,0 0.9,0 1.27,0 0.27,0 0.64,0 0.85,0 0.43,0 0.85,0 1.23,0.1 0.32,0 0.64,0 0.9,0 0.42,0 0.8,0 1.22,0 0.27,0 0.64,0 0.9,0 0.43,0 0.8,0 1.18,0.1 0.37,0 0.63,0 1.01,0 0.37,0 0.69,0 1.11,0 0.64,0 1.28,0 1.86,0 0.37,0 0.69,0 1.01,0.1 0.43,0 0.85,0 1.28,0 0.37,0 0.64,0 1.01,0 0.37,0 0.74,0 1.12,0 0.31,0 0.68,0 1,0 0.38,0 0.8,0 1.17,0 0.32,0.1 0.64,0.1 0.96,0.1 0.43,0 0.8,0 1.22,0 0.38,0 0.59,0 0.91,0 0.42,0 0.9,0 1.33,0 0.26,0 0.58,0 0.85,0 0.74,0 1.38,0 2.07,0 0.11,0 0.26,0 0.42,0 0.59,0 1.12,0 1.71,0.1 0.32,0 0.53,0 0.85,0 0.47,0 0.85,0 1.33,0 0.31,0 0.58,0 0.84,0 0.43,0 0.86,0 1.28,0 0.32,0 0.59,0 0.91,0 0.47,0 0.9,0 1.32,0 0.27,0 0.54,0 0.85,0 0.48,0 0.96,0 1.44,0 0.27,0 0.42,0 0.69,0 0.74,0 1.44,0 2.18,0 v 0 c 346.58,0 663.97,-124.2 910.35,-330.8 -85.16,-44.9 -167.07,-92.2 -245.69,-141.5 -217.67,136.1 -474.89,214.7 -750.56,214.7 -578.23,0 -1075.24,-346.1 -1295.94,-842.4"
           style="fill:#bfbbca;fill-opacity:1;fill-rule:nonzero;stroke:none"
           id="path1699" /></g><g
         id="g1701"
         transform="scale(1.84308)"><path
           d="m 9221.97,16026.6 c -4.12,3.5 -8.25,7 -12.42,10.5 -51.49,43.1 -105.97,82.8 -163.16,118.5 80.25,50.3 163.86,98.6 250.78,144.4 v 0 c 54.42,-45.6 105.37,-95.1 152.52,-148.1 -77.75,-39.3 -153.71,-81.1 -227.72,-125.3"
           style="fill:#b4b1c9;fill-opacity:1;fill-rule:nonzero;stroke:none"
           id="path1703" /></g><g
         id="g1705"
         transform="scale(1.89282)"><path
           d="m 8147.9,16100.9 c -722.15,0 -1309.68,-587.6 -1309.68,-1309.7 0,-722.2 587.53,-1309.8 1309.68,-1309.8 722.21,0 1309.74,587.6 1309.74,1309.8 0,722.1 -587.53,1309.7 -1309.74,1309.7 z m 0,-2818.6 c -831.93,0 -1508.8,676.9 -1508.8,1508.9 0,832 676.87,1508.8 1508.8,1508.8 831.99,0 1508.86,-676.8 1508.86,-1508.8 0,-832 -676.87,-1508.9 -1508.86,-1508.9"
           style="fill:#000072;fill-opacity:1;fill-rule:nonzero;stroke:none"
           id="path1707" /></g><g
         id="g1709"
         transform="scale(1.88126)"><path
           d="m 13110.9,14881.9 c 0,-783 634.7,-1417.8 1417.8,-1417.8 356.6,0 682.8,131.9 932.1,349.5 297.9,259.5 486,641.9 486,1068.3 0,783.3 -634.8,1418.1 -1418.1,1418.1 -346.6,0 -664,-124.2 -910.4,-330.8 -310.3,-260.2 -507.4,-650.9 -507.4,-1087.3"
           style="fill:#60547b;fill-opacity:1;fill-rule:nonzero;stroke:none"
           id="path1711" /></g><g
         id="g1713"
         transform="scale(1.82675)"><path
           d="m 15753.9,14099 c -73.4,199.3 -164.7,407.6 -278.3,616.6 -323.4,594.4 -761,1068.3 -1300.8,1408.6 -24.6,15.5 -49.3,30.7 -74.3,45.6 4.2,3.5 8.3,7.1 12.6,10.6 51.9,43.5 106.9,83.5 164.6,119.6 881.7,-552.9 1372,-1360.3 1644.4,-2074.3 -52.9,-46.1 -109,-88.4 -168.2,-126.7"
           style="fill:#433b78;fill-opacity:1;fill-rule:nonzero;stroke:none"
           id="path1715" /></g><g
         id="g1717"
         transform="scale(1.88126)"><path
           d="m 14580,16299.1 c -0.1,0 -0.2,0 -0.4,0 0.2,0 0.3,0 0.4,0 m -2,0.1 c -0.1,0 -0.2,0 -0.4,0 0.1,0 0.3,0 0.4,0 m -2,0 c -0.1,0 -0.3,0 -0.5,0 0.2,0 0.4,0 0.5,0 m -2,0.1 c -0.2,0 -0.4,0 -0.5,0 0.2,0 0.3,0 0.5,0 m -5.4,0.1 c -0.2,0.1 -0.5,0.1 -0.7,0.1 0.2,0 0.5,0 0.7,-0.1 m -2,0.1 c -0.2,0 -0.6,0 -0.8,0 0.3,0 0.5,0 0.8,0 m -2.1,0.1 c -0.2,0 -0.5,0 -0.8,0 0.3,0 0.6,0 0.8,0 m -2,0 c -0.4,0 -0.7,0 -1,0 0.3,0 0.6,0 1,0 m -2.2,0.1 c -0.3,0 -0.6,0 -0.9,0 0.3,0 0.6,0 0.9,0 m -2,0 c -0.7,0 -1.3,0 -1.9,0 0.5,0 1.2,0 1.9,0 m -2.9,0.1 c -0.4,0 -0.9,0 -1.3,0 0.4,0 0.9,0 1.3,0 m -2.3,0 c -0.4,0 -0.7,0 -1.1,0 0.4,0 0.7,0 1.1,0 m -2.1,0 c -0.4,0 -0.8,0 -1.2,0 0.4,0 0.8,0 1.2,0 m -2.1,0.1 c -0.5,0 -0.9,0 -1.3,0 0.4,0 0.8,0 1.3,0 m -2.2,0 c -0.4,0 -0.9,0 -1.3,0 0.4,0 0.9,0 1.3,0 m -2.1,0 c -0.8,0 -1.4,0 -2.1,0 0.7,0 1.4,0 2.1,0 m -2.5,0 c -0.6,0 -1.2,0 -1.8,0.1 0.6,-0.1 1.2,-0.1 1.8,-0.1 m -2.6,0.1 c -0.5,0 -0.9,0 -1.4,0 0.5,0 1,0 1.4,0 m -2.2,0 c -0.5,0 -0.8,0 -1.3,0 0.4,0 0.9,0 1.3,0 m -2.2,0 c -0.4,0 -0.9,0 -1.3,0 0.4,0 0.9,0 1.3,0 m -2.1,0 c -0.5,0 -1,0 -1.5,0 0.5,0 1,0 1.5,0 m -2.2,0 c -0.7,0 -1.4,0 -2.1,0 0.7,0 1.4,0 2.1,0"
           style="fill:#b1fef6;fill-opacity:1;fill-rule:nonzero;stroke:none"
           id="path1719" /></g><g
         id="g1721"
         transform="scale(1.88126)"><path
           d="m 15910.5,15200 c -220.8,496.3 -717.7,842.4 -1296,842.4 -275.6,0 -532.8,-78.6 -750.5,-214.7 -78.6,49.3 -160.5,96.6 -245.7,141.5 246.4,206.6 563.8,330.8 910.4,330.8 v 0 c 0.7,0 1.4,0 2.1,0 0.3,0 0.5,0 0.7,0 0.5,0 1,0 1.5,0 0.2,0 0.5,0 0.8,0 0.4,0 0.9,0 1.3,0 0.3,0 0.6,0 0.9,0 0.5,0 0.8,0 1.3,0 0.3,0 0.6,0 0.8,0 0.5,0 0.9,0 1.4,0 0.3,0 0.5,0 0.8,0 0.6,-0.1 1.2,-0.1 1.8,-0.1 0.1,0 0.2,0 0.4,0 0.7,0 1.3,0 2.1,0 0.2,0 0.5,0 0.8,0 0.4,0 0.9,0 1.3,0 0.4,0 0.6,0 0.9,0 0.4,0 0.8,0 1.3,0 0.3,0 0.6,0 0.9,-0.1 0.4,0 0.8,0 1.2,0 0.3,0 0.6,0 1,0 0.4,0 0.7,0 1.1,0 0.3,0 0.7,0 1,0 0.4,0 0.9,0 1.3,0 0.3,-0.1 0.6,-0.1 1,-0.1 0.6,0 1.2,0 1.9,0 0.3,0 0.7,0 1.1,0 0.3,0 0.6,0 0.9,0 0.4,-0.1 0.8,-0.1 1.2,-0.1 0.3,0 0.6,0 1,0 0.3,0 0.8,0 1.2,0 0.3,0 0.6,0 0.8,0 0.5,-0.1 0.9,-0.1 1.3,-0.1 0.2,0 0.6,0 0.8,0 0.4,0 0.9,0 1.3,0 0.2,0 0.5,0 0.7,-0.1 1.6,0 3.2,0 4.9,-0.1 0.1,0 0.3,0 0.5,0 0.5,0 1,0 1.5,-0.1 0.2,0 0.4,0 0.5,0 0.6,0 1,0 1.6,0 0.2,0 0.3,0 0.4,0 0.6,-0.1 1.1,-0.1 1.6,-0.1 0.2,0 0.3,0 0.4,0 651,-23.2 1189.7,-485.1 1330.5,-1099.1"
           style="fill:#bfbbca;fill-opacity:1;fill-rule:nonzero;stroke:none"
           id="path1723" /></g><g
         id="g1725"
         transform="scale(1.84308)"><path
           d="m 13975.7,16026.6 c -74.1,44.2 -150,86 -227.8,125.3 47.2,53 98.1,102.5 152.6,148.1 v 0 c 86.9,-45.8 170.5,-94.1 250.7,-144.4 -57.2,-35.7 -111.7,-75.4 -163.1,-118.5 -4.2,-3.5 -8.3,-7 -12.4,-10.5"
           style="fill:#b4b1c9;fill-opacity:1;fill-rule:nonzero;stroke:none"
           id="path1727" /></g><g
         id="g1729"
         transform="scale(1.89282)"><path
           d="m 14440.1,16100.9 c -722.2,0 -1309.7,-587.6 -1309.7,-1309.7 0,-722.2 587.5,-1309.8 1309.7,-1309.8 722.2,0 1309.7,587.6 1309.7,1309.8 0,722.1 -587.5,1309.7 -1309.7,1309.7 z m 0,-2818.6 c -832,0 -1508.9,676.9 -1508.9,1508.9 0,832 676.9,1508.8 1508.9,1508.8 831.9,0 1508.8,-676.8 1508.8,-1508.8 0,-832 -676.9,-1508.9 -1508.8,-1508.9"
           style="fill:#000072;fill-opacity:1;fill-rule:nonzero;stroke:none"
           id="path1731" /></g><g
         id="g1733"
         transform="scale(1.98059)"><path
           d="m 14710.9,11688.3 c 0,0 -83.4,3677.7 -3917.4,3677.7 -3834,0 -3917.46,-3677.7 -3917.46,-3677.7 -1589.03,-3473.07 3917.46,-3391.53 3917.46,-3391.53 0,0 5506.5,-81.54 3917.4,3391.53"
           style="fill:#ffffff;fill-opacity:1;fill-rule:nonzero;stroke:none"
           id="path1735" /></g><g
         id="g1737"
         transform="scale(1.86863)"><path
           d="m 11440,8807.25 c 8.4,-0.1 814.5,-9.84 1728,161.35 841.7,157.76 1949.3,505.67 2446.4,1267.5 369.9,566.6 358.3,1289 -34.2,2147 l -1.2,5.2 c -0.2,9.8 -28.2,983.3 -551,1943.8 -482,885.5 -1495.7,1941.1 -3587.8,1941.1 -2092.12,0 -3105.8,-1055.6 -3587.76,-1941.1 -522.79,-960.5 -550.83,-1934 -551.05,-1943.8 l -1.17,-5.2 c -392.59,-858 -404.1,-1580.4 -34.2,-2147 497.1,-761.83 1604.7,-1109.74 2446.34,-1267.5 913.54,-171.19 1719.54,-161.4 1727.64,-161.35 m 29.4,-26.86 c -18.4,0 -28.5,0.11 -29.4,0.16 -7.7,-0.05 -816,-9.95 -1732.09,161.67 -846.93,158.67 -1961.92,509.41 -2464.31,1279.18 -374.88,574.3 -364.34,1304.6 31.14,2170.4 1.98,58.8 42.12,1011.7 553.72,1952.2 308.89,567.9 726.58,1020.4 1241.45,1344.9 643.35,405.5 1440.79,611.1 2370.29,611.1 929.5,0 1727,-205.6 2370.3,-611.1 514.9,-324.5 932.5,-777 1241.4,-1344.9 511.6,-940.5 551.8,-1893.3 553.8,-1952.2 395.5,-865.9 406,-1596 31.1,-2170.4 -502.4,-769.77 -1617.4,-1120.51 -2464.3,-1279.18 -817.7,-153.21 -1549.5,-161.83 -1703.1,-161.83"
           style="fill:#000072;fill-opacity:1;fill-rule:nonzero;stroke:none"
           id="path1739" /></g><g
         id="g1741"
         transform="scale(1.64026)"><path
           d="m 11188.6,13398.4 c 0,0 252.6,826.7 748,1401.5 268.1,311.2 313.4,764.9 87,1107.7 -144,218 -396.2,392.4 -835,392.4 -1170,0 -1996.72,-1474.8 -2020.14,-2383.2 -23.34,-908.3 514.8,-1334.9 881.34,-1367.3 366.6,-32.4 943.9,76.7 1138.8,848.9"
           style="fill:#60547b;fill-opacity:1;fill-rule:nonzero;stroke:none"
           id="path1743" /></g><g
         id="g1745"
         transform="scale(1.70274)"><path
           d="m 14331.5,12906.8 c 0,0 -243.4,796.4 -720.5,1350.1 -258.4,299.8 -302,736.8 -83.9,1067 138.7,210 381.7,378.1 804.4,378.1 1127,0 1923.5,-1420.7 1945.9,-2295.8 22.6,-875 -495.8,-1285.9 -849,-1317.1 -353.1,-31.3 -909.1,73.9 -1096.9,817.7"
           style="fill:#60547b;fill-opacity:1;fill-rule:nonzero;stroke:none"
           id="path1747" /></g><g
         id="g1749"
         transform="scale(1.81866)"><path
           d="m 11728.1,9139.05 c -304.5,0 -3280.66,38 -4187.31,1427.55 -259.87,398.3 -325.9,878.2 -198.28,1432.4 -24.75,-2310.42 4026.19,-2361.78 4386.49,-2361.78 16.8,0 25.6,0.11 25.6,0.11 0,0 6.5,-0.05 19,-0.05 317.4,0 4484.3,45.31 4373.8,2440.22 152.6,-587.5 93,-1093.9 -179.1,-1510.9 -906.9,-1389.88 -3884.7,-1427.55 -4187.5,-1427.55 -14.8,0 -23.2,0.06 -24.7,0.11 -0.5,0 -1,0 -1.5,0 -0.5,0 -1,0 -1.6,0 -1.5,-0.05 -10,-0.11 -24.9,-0.11"
           style="fill:#b2b2d4;fill-opacity:1;fill-rule:nonzero;stroke:none"
           id="path1751" /></g><g
         id="g1753"
         transform="scale(1.44647)"><path
           d="m 15537.9,14264 -759.6,493.9 -759.5,-493.9 c 0,0 -514.2,82.6 -663.4,487.3 -98.8,267.8 33.4,502.2 134.2,630.1 13.5,17.2 32.5,25.1 51.3,25.1 28.7,0 56.8,-18.5 64.2,-51.1 38.9,-172.9 146.4,-458.3 433.3,-458.3 2.2,0 4.6,0.1 6.9,0.1 417.9,6.6 348.3,640.2 348.3,640.2 h 384.7 384.7 c 0,0 -69.6,-633.6 348.3,-640.2 2.4,0 4.7,-0.1 6.9,-0.1 286.9,0.1 394.5,285.4 433.4,458.3 7.3,32.6 35.4,51.1 64.2,51.1 18.7,0 37.7,-7.9 51.2,-25.1 100.7,-127.9 233,-362.3 134.2,-630.1 -149.2,-404.7 -663.3,-487.3 -663.3,-487.3"
           style="fill:#b2b2d4;fill-opacity:1;fill-rule:nonzero;stroke:none"
           id="path1755" /></g><g
         id="g1757"
         transform="scale(1.44502)"><path
           d="m 15567.8,16138.7 c -281.6,161.3 -773.9,152 -773.9,152 0,0 -492.4,9.3 -774.1,-152 -93.7,-53.7 -131.8,-170.4 -92.1,-270.9 83.3,-210.6 306.4,-564.3 866.2,-564.3 559.7,0 782.9,353.7 866.1,564.3 39.7,100.5 1.6,217.2 -92.2,270.9"
           style="fill:#000072;fill-opacity:1;fill-rule:nonzero;stroke:none"
           id="path1759" /></g><g
         id="g1761"
         transform="scale(1.38423)"><path
           d="m 15598.3,16157.8 c 2.1,-19.4 2.8,-31.3 3.8,-46.4 l 1.8,-42.1 c 0.8,-27.9 1,-55.6 -0.3,-83.3 -2.3,-55.4 -7.5,-110.8 -16.6,-166.3 -18.5,-110.6 -51.6,-223 -109.2,-329 -29.2,-52.8 -64.7,-103.6 -106.3,-150.2 -41,-47.2 -91.3,-86.9 -143.7,-121.1 -53,-34.5 -110.6,-58.7 -168.3,-78.6 -58,-17.4 -116.8,-30.2 -174.6,-34.5 -117,-9.6 -223.1,-2.1 -334.5,18.2 -55.5,10.9 -111.1,26.7 -165.7,49.7 -54.4,22.4 -108.1,51.6 -156.5,89.9 -97.4,75.3 -172.4,186 -196.5,302.1 -12.2,57.9 -14.2,116 -6.6,171.6 7.9,56 23,108.4 51.9,159 9.3,16.3 30.1,22 46.4,12.7 8.5,-5 14.2,-13 16.2,-21.9 l 1,-4.3 c 21.7,-95.1 46.2,-183.9 81.1,-256.7 34.9,-73 79.6,-132.3 143.9,-171.9 31.4,-20.4 67.3,-35.8 105.7,-47.3 38,-12.3 79.3,-19 121.3,-24.4 84,-9.5 177.7,-8.6 257.3,4.4 40.7,6.2 78.4,17.4 114.7,29.8 34.8,14.8 68.6,30.6 97.5,52.2 58.6,42 105.4,98.6 140.8,167.5 34,69.7 59.3,149.1 72,233.9 6.8,42.2 11.5,85.4 13.6,129 1,21.7 2,43.4 2,65.1 l -0.3,32 -1.2,27.8 -0.5,9.5 c -3.8,85.8 62.7,158.4 148.4,162.1 82.3,3.7 152.5,-57.9 161.4,-138.5"
           style="fill:#000072;fill-opacity:1;fill-rule:nonzero;stroke:none"
           id="path1763" /></g><g
         id="g1765"
         transform="scale(1.43261)"><path
           d="m 15071.5,15580.1 -1.2,-26.9 -0.3,-30.9 c -0.1,-20.9 0.9,-41.9 1.8,-62.9 2.1,-42.1 6.7,-83.9 13.3,-124.6 12.2,-82 36.6,-158.7 69.5,-226.1 34.3,-66.5 79.4,-121.2 136.1,-161.8 27.9,-20.9 60.5,-36.1 94.2,-50.4 35,-12 71.5,-22.8 110.8,-28.8 76.8,-12.6 167.4,-13.4 248.5,-4.3 40.7,5.2 80.7,11.7 117.3,23.7 37.1,11.1 71.8,25.9 102.2,45.6 62.1,38.3 105.2,95.6 139,166.1 33.6,70.4 57.4,156.1 78.4,248 l 0.9,4.1 c 4,17.7 21.6,28.8 39.3,24.7 9.2,-2.1 16.8,-8 21.2,-15.7 28,-48.9 42.5,-99.5 50.1,-153.6 7.4,-53.8 5.4,-109.9 -6.4,-165.8 -23.2,-112.2 -95.7,-219.2 -189.7,-291.9 -46.9,-37 -98.7,-65.2 -151.3,-86.9 -52.8,-22.2 -106.5,-37.5 -160.1,-48 -107.7,-19.7 -210.1,-26.9 -323.3,-17.6 -55.8,4.1 -112.6,16.5 -168.7,33.3 -55.7,19.3 -111.4,42.7 -162.5,76 -50.7,33 -99.3,71.4 -139,117 -40,45 -74.4,94.1 -102.6,145.1 -55.6,102.4 -87.7,211.1 -105.6,317.8 -8.7,53.7 -13.7,107.3 -16,160.7 -1.2,26.8 -1,53.6 -0.3,80.6 l 1.8,40.7 c 1,14.6 1.6,26 3.7,44.8 8.8,82.4 83,142 165.4,133.1 79.2,-8.6 137.2,-77.1 133.9,-155.4 l -0.4,-9.7"
           style="fill:#000072;fill-opacity:1;fill-rule:nonzero;stroke:none"
           id="path1767" /></g><g
         id="g1769"
         transform="scale(1.3534)"><path
           d="m 15795.4,16300 c 0,-43 -1.6,-84.4 -4,-123.3 -2.8,38.9 -4.3,80.3 -4.3,123.3 h 8.3"
           style="fill:#222a66;fill-opacity:1;fill-rule:nonzero;stroke:none"
           id="path1771" /></g><g
         id="g1773"
         transform="scale(1.35493)"><path
           d="m 15755.1,16157 c -2.9,41.1 -4.4,83 -4.4,124.5 v 18.5 h 45.3 v -18.5 c 0,-39.1 -1.3,-79.8 -4.1,-124.2 l -36.8,-0.3"
           style="fill:#000072;fill-opacity:1;fill-rule:nonzero;stroke:none"
           id="path1775" /></g><g
         id="g1777"
         transform="scale(1.41031)"><path
           d="m 15158,13669.7 h -3.8 c -452.3,0 -702.6,203.3 -840.2,449.2 -210.6,377.2 -155.7,855.1 -155.7,855.1 0,0 929.8,-308.1 996.2,615.7 66,-923.8 995.8,-615.7 995.8,-615.7 0,0 149.7,-1301.5 -992.3,-1304.3"
           style="fill:#000072;fill-opacity:1;fill-rule:nonzero;stroke:none"
           id="path1779" /></g><g
         id="g1781"
         transform="scale(1.38453)"><path
           d="m 15440.3,14867.5 c -607.2,0 -859.7,-485.6 -859.7,-485.6 140.2,-250.5 395.1,-457.6 855.8,-457.6 h 3.9 3.9 c 460.6,0 715.6,207.1 855.8,457.6 0,0 -252.5,485.6 -859.7,485.6"
           style="fill:#ff4379;fill-opacity:1;fill-rule:nonzero;stroke:none"
           id="path1783" /></g><g
         id="g1785"
         transform="scale(1.41535)"><path
           d="m 14234.9,14755.4 c 2.5,-193.7 38.8,-532.4 241.9,-759.4 143.4,-160.3 353.2,-241.7 623.6,-241.7 270.3,0 480.1,81.4 623.5,241.7 203,226.9 239.4,565.6 241.8,759.4 -178.3,-28.7 -463.7,-38.4 -688.5,123.9 -70.9,51.2 -129.8,114.7 -176.8,190.2 -47,-75.5 -106,-139 -177,-190.2 -224.6,-162.3 -510.1,-152.6 -688.5,-123.9 z m 865.5,-1267.4 c -350.1,0 -627,111.6 -823.1,331.6 -376.6,422.5 -304.8,1088.2 -301.7,1116.4 4.6,39.8 26.9,75.4 60.7,97 33.8,21.6 75.5,26.7 113.5,14.2 3.5,-1.2 383.4,-122.2 618.6,48.6 115.5,83.8 182,231.1 198.5,438.6 -2.3,34.5 -3.4,70 -3.4,106.5 0,74.9 61.6,135.4 136.9,133.2 74.4,2.1 136.8,-58.3 136.8,-133.2 0,-36.5 -1.1,-72 -3.4,-106.5 16.4,-207.5 83,-354.8 198.6,-438.6 235.2,-170.8 614.9,-49.8 618.8,-48.6 38,12.4 79.7,7.1 113.3,-14.4 33.6,-21.7 55.9,-57.1 60.5,-96.8 3.3,-28.2 75,-693.9 -301.6,-1116.4 -196.1,-220 -473.1,-331.6 -823,-331.6"
           style="fill:#000072;fill-opacity:1;fill-rule:nonzero;stroke:none"
           id="path1787" /></g><g
         id="g1789"
         transform="scale(1.43282)"><path
           d="m 15371.1,16226.4 c 0,-40.7 -202.4,-73.7 -452,-73.7 -249.7,0 -452.1,33 -452.1,73.7 0,40.7 202.4,73.6 452.1,73.6 249.6,0 452,-32.9 452,-73.6"
           style="fill:#ffffff;fill-opacity:1;fill-rule:nonzero;stroke:none"
           id="path1791" /></g><g
         id="g1793"
         transform="scale(1.43436)"><path
           d="m 14470,16209 c 17.5,-20 159.8,-56.2 433.1,-56.2 273.5,0 415.6,36.2 433.3,56.2 -17.7,20 -159.8,56.1 -433.3,56.1 -273.3,0 -415.6,-36.1 -433.1,-56.1 z m 433.1,-91 c -47.9,0 -469,2.5 -469,91 0,88.4 421.1,91 469,91 48.1,0 469,-2.6 469,-91 0,-88.5 -420.9,-91 -469,-91"
           style="fill:#000072;fill-opacity:1;fill-rule:nonzero;stroke:none"
           id="path1795" /></g><g
         id="g1797"
         transform="scale(1.87866)"><path
           d="m 11379.1,8847.28 c 0.5,0 1.1,0 1.5,0 31.1,-0.58 3157,-29.28 4077.7,1381.82 350.4,537.1 336.8,1227.3 -40.4,2051.7 -5.6,12.3 -8.7,25.8 -9,39.4 -0.3,9.5 -28.7,962.3 -540.6,1899.4 -681.4,1247.4 -1855.4,1879.8 -3489.2,1879.8 -1633.73,0 -2807.66,-632.4 -3489.1,-1879.8 -511.96,-937.1 -540.38,-1889.9 -540.6,-1899.4 -0.32,-13.6 -3.4,-27.1 -9.05,-39.4 -377.18,-824.4 -390.76,-1514.6 -40.4,-2051.7 920.82,-1411.2 4046.65,-1382.4 4077.75,-1381.82 0.5,0 1,0 1.4,0 m 28.3,-200.73 c -15.2,0 -24.7,0.05 -28.3,0.11 -39.7,-0.48 -838,-6.5 -1739.07,162.35 -1249.46,234.1 -2093.25,674.95 -2507.91,1310.29 -387.94,594.3 -382.03,1343.5 17.46,2226.6 6.39,152 64.51,1051 560.67,1963.2 314.42,578 739.99,1038.8 1264.83,1369.7 654.04,412.2 1462.82,621.2 2404.02,621.2 941.2,0 1750.1,-209 2404.1,-621.2 524.8,-330.9 950.4,-791.7 1264.8,-1369.7 496.2,-912.2 554.3,-1811.3 560.7,-1963.2 399.4,-883.1 405.4,-1632.3 17.5,-2226.6 -414.7,-635.34 -1258.5,-1076.19 -2508,-1310.29 -820.7,-153.78 -1556.3,-162.46 -1710.8,-162.46"
           style="fill:#000072;fill-opacity:1;fill-rule:nonzero;stroke:none"
           id="path1799" /></g><g
         id="g1801"
         transform="scale(1.55722)"><path
           d="m 11449.7,16268.3 c -308.8,31.7 -594.2,-285.5 -637.5,-708.3 -43.3,-422.9 171.9,-791.3 480.6,-823 308.8,-31.6 594.2,285.5 637.5,708.4 43.3,422.9 -171.9,791.3 -480.6,822.9"
           style="fill:#000072;fill-opacity:1;fill-rule:nonzero;stroke:none"
           id="path1803" /></g><g
         id="g1805"
         transform="scale(1.53636)"><path
           d="m 11567.4,16287.7 c -119.9,12.3 -228.3,-87.3 -242.2,-222.6 -13.9,-135.2 72.1,-254.8 192,-267.1 119.9,-12.3 228.3,87.5 242.2,222.6 13.9,135.2 -72.1,254.8 -192,267.1"
           style="fill:#ffffff;fill-opacity:1;fill-rule:nonzero;stroke:none"
           id="path1807" /></g><g
         id="g1809"
         transform="scale(1.46276)"><path
           d="m 11885.5,15966.6 c -5.7,0 -11.4,0.3 -17.3,0.9 -91.5,9.3 -158.2,91.2 -148.8,182.8 8.8,85.8 81.2,149.7 165.7,149.7 5.6,0 11.4,-0.3 17.1,-0.9 91.6,-9.4 158.2,-91.3 148.8,-182.8 -8.7,-85.8 -81.1,-149.7 -165.5,-149.7"
           style="fill:#4d4d9d;fill-opacity:1;fill-rule:nonzero;stroke:none"
           id="path1811" /></g><g
         id="g1813"
         transform="scale(1.58869)"><path
           d="m 15632.7,15946.1 c 302.6,31.1 582.4,-279.8 624.8,-694.3 42.5,-414.5 -168.4,-775.6 -471.1,-806.7 -302.6,-31 -582.4,279.9 -624.8,694.4 -42.5,414.5 168.4,775.7 471.1,806.6"
           style="fill:#000072;fill-opacity:1;fill-rule:nonzero;stroke:none"
           id="path1815" /></g><g
         id="g1817"
         transform="scale(1.55134)"><path
           d="m 16046.4,16130.5 c 118.8,12.2 226.2,-86.5 239.9,-220.5 13.7,-133.9 -71.5,-252.3 -190.2,-264.5 -118.7,-12.2 -226.1,86.6 -239.8,220.5 -13.8,133.9 71.4,252.3 190.1,264.5"
           style="fill:#ffffff;fill-opacity:1;fill-rule:nonzero;stroke:none"
           id="path1819" /></g><g
         id="g1821"
         transform="scale(1.56663)"><path
           d="m 16136.3,14908 c -78.9,0 -146.5,59.7 -154.7,139.8 -8.7,85.4 53.5,161.9 139,170.6 5.3,0.6 10.7,0.9 16,0.9 78.8,0 146.5,-59.7 154.7,-139.8 8.7,-85.6 -53.5,-162 -139,-170.7 -5.4,-0.6 -10.7,-0.8 -16,-0.8"
           style="fill:#4d4d9d;fill-opacity:1;fill-rule:nonzero;stroke:none"
           id="path1823" /></g><g
         id="g1825"
         transform="scale(1.44392)"><path
           d="m 6476.08,16300 c 0,0 -276.01,-1705.4 -2186.74,-2096 0,0 562.36,1770.8 2186.74,2096"
           style="fill:#248943;fill-opacity:1;fill-rule:nonzero;stroke:none"
           id="path1827" /></g><g
         id="g1829"
         transform="scale(1.44586)"><path
           d="m 6445.49,16256 c -1462.4,-308.7 -2054.5,-1820.9 -2135.62,-2048 1722.76,368.1 2091.48,1837.8 2135.62,2048 m -2187.29,-2094 8.92,28.1 c 5.64,17.8 583.35,1781.9 2196.87,2105 l 24.44,4.9 -3.97,-24.6 c -0.67,-4.3 -73.02,-434.8 -378.88,-907 -282.29,-435.8 -826.95,-997.7 -1818.5,-1200.4 l -28.88,-6"
           style="fill:#000072;fill-opacity:1;fill-rule:nonzero;stroke:none"
           id="path1831" /></g><g
         id="g1833"
         transform="scale(1.4159)"><path
           d="m 4603.28,14684.4 c 3.4,7.6 6.88,15.3 10.46,23.1 519.43,277.4 848.81,663.8 1055.07,1010.7 104.15,95.1 210.04,187.8 319.38,276.4 113.08,92.2 228.12,181.7 345.14,268.2 8.52,6.3 17.06,12.6 25.61,18.9 -56.74,-147.5 -140.61,-326.9 -262.16,-512.7 -350.23,-535.5 -851.79,-899.5 -1493.5,-1084.6 m 1231.92,1359.1 c 25.55,58.8 47.31,114.4 65.79,165.5 55.48,32.2 112.85,62.7 172.16,91 -63.05,-65.5 -125.09,-131.9 -186.14,-199 -17.39,-19.1 -34.66,-38.2 -51.81,-57.5"
           style="fill:#196051;fill-opacity:1;fill-rule:nonzero;stroke:none"
           id="path1835" /></g><g
         id="g1837"
         transform="scale(1.45801)"><path
           d="m 6495.24,16034.8 c -114.85,-75.3 -231.58,-158.1 -344.83,-241.7 -113.64,-84 -225.36,-170.9 -335.17,-260.4 -110.1,-89.3 -216.62,-182.8 -321.37,-278.7 -104.44,-96.3 -204.47,-197.3 -301.32,-302.2 -2.72,-3 -7.4,-3.3 -10.47,-0.6 -2.78,2.4 -3.18,6.7 -1.2,9.7 80.35,118.4 165.28,234.5 255.39,346.7 90.42,111.7 183.5,221.9 280.71,328.3 96.95,106.7 196.48,211.3 298.61,313.5 102.69,102.5 205.52,201.6 316.15,300.7 55.8,49.9 141.5,45.2 191.43,-10.7 49.94,-55.7 45.18,-141.5 -10.61,-191.4 -4.91,-4.4 -10.05,-8.4 -15.37,-11.9 l -1.95,-1.3"
           style="fill:#000072;fill-opacity:1;fill-rule:nonzero;stroke:none"
           id="path1839" /></g><g
         id="g1841"
         transform="scale(1.45655)"><path
           d="M 6232.39,15972.4 C 5205.64,15662.7 4673.6,14718.3 4474.81,14274.5 c 623.8,180 1111.36,533.9 1451.82,1054.4 161.89,247.5 255.01,483.2 305.76,643.5 M 4252.15,13945.5 c -37.95,0 -74.66,16 -100.57,44.8 -32.08,35.7 -42.87,85.7 -28.36,131.4 23.77,74.8 600.83,1835.4 2270.15,2169.6 43.48,8.7 88.46,-4.5 120.42,-35.2 31.91,-30.8 46.72,-75.3 39.65,-119 -2.98,-18.4 -76.6,-456.4 -393.56,-945.7 -292.52,-451.5 -856.25,-1033.7 -1880.64,-1243.2 -9.02,-1.8 -18.1,-2.7 -27.09,-2.7"
           style="fill:#000072;fill-opacity:1;fill-rule:nonzero;stroke:none"
           id="path1843" /></g><g
         id="g1845"
         transform="scale(1.55597)"><path
           d="m 6095.69,14957 c 0,0 -1585.18,-239.9 -2472.35,1337.5 0,0 1724.16,5.5 2472.35,-1337.5"
           style="fill:#248943;fill-opacity:1;fill-rule:nonzero;stroke:none"
           id="path1847" /></g><g
         id="g1849"
         transform="scale(1.55698)"><path
           d="m 3648.95,16267.3 c 814.47,-1418.6 2218.56,-1327.5 2416.98,-1306.9 -688.3,1205.8 -2193.29,1299.7 -2416.98,1306.9 m 2214.1,-1348.7 c -165.83,0 -407.18,17 -678.39,90.4 -465.43,125.9 -1116.92,447.9 -1577.64,1267.1 l -13.42,23.8 27.34,0.1 h 0.16 c 25.37,0 1742.76,-13.1 2484.66,-1344.8 l 11.29,-20.3 -22.89,-3.4 c -1.85,-0.3 -88.6,-12.9 -231.11,-12.9"
           style="fill:#000072;fill-opacity:1;fill-rule:nonzero;stroke:none"
           id="path1851" /></g><g
         id="g1853"
         transform="scale(1.53711)"><path
           d="m 5802.32,15259.7 c -8.64,0.6 -17.39,1.1 -26.29,1.7 -9.02,12.4 -18.12,24.7 -27.32,36.8 10.02,-7 20.02,-14.2 30,-21.4 7.87,-5.7 15.74,-11.3 23.61,-17.1 m -65,256.1 c -74.97,36.8 -150.41,72.3 -226.3,106.9 -38.23,17.5 -76.67,34.5 -115.27,51.2 -388.16,335.8 -836.23,523.4 -1175.51,626.1 439.92,-88.9 1056.28,-297.1 1517.08,-784.2"
           style="fill:#a7d0b4;fill-opacity:1;fill-rule:nonzero;stroke:none"
           id="path1855" /></g><g
         id="g1857"
         transform="scale(1.50052)"><path
           d="m 6245.68,15402.1 c -103.85,83.9 -215.13,167.3 -326.06,247.3 -111.52,80.1 -225.1,157.6 -340.56,232.7 -115.3,75.3 -233.41,146.1 -353.29,214.5 -120.09,68 -243.22,130.6 -369.03,189 -3.64,1.6 -5.29,5.9 -3.67,9.5 1.44,3.3 5.24,4.9 8.61,4 133.4,-39.2 266.06,-83.3 396.55,-133.3 130.26,-50.5 259.85,-103.8 387.17,-162.2 127.51,-58 253.82,-119 378.75,-183.1 125.29,-64.6 247.58,-130.3 372.05,-203.2 62.77,-36.8 83.82,-117.5 47.05,-180.3 -36.78,-62.7 -117.49,-83.8 -180.24,-47 -5.53,3.3 -10.73,6.8 -15.6,10.7 l -1.73,1.4"
           style="fill:#000072;fill-opacity:1;fill-rule:nonzero;stroke:none"
           id="path1859" /></g><g
         id="g1861"
         transform="scale(1.56753)"><path
           d="m 3831.61,16031.9 c 336.35,-500.5 787.83,-831.2 1344.95,-984.5 264.92,-72.9 501.38,-88.2 656.1,-87.7 -564.65,818.2 -1551.72,1021.7 -2001.05,1072.2 m 1990.74,-1324 c -171.95,0 -420.02,18 -701.27,94.1 -482.55,130.5 -1157.74,463.8 -1634.02,1310.7 -21.83,38.9 -21.49,86.4 0.97,124.8 22.42,38.6 63.6,62.4 108.18,62.5 0.53,0 1.19,0 1.9,0 96.38,0 1798.2,-20.4 2562.4,-1392.2 20.06,-36 21.18,-79.5 3.02,-116.5 -18.13,-37 -53.26,-62.7 -94.01,-68.9 -7.91,-1.2 -99.46,-14.5 -247.17,-14.5"
           style="fill:#000072;fill-opacity:1;fill-rule:nonzero;stroke:none"
           id="path1863" /></g><g
         id="g1865"
         transform="scale(1.52333)"><path
           d="m 8151.9,11116.2 -2050.42,3976.9 c -92.67,179.7 -114.8,387.6 -62.06,582.8 l 126.26,467.4 c 36.98,136.9 223.01,156.7 288,30.7 l 2416.65,-4687.3 c 102.34,-198.4 24.42,-442.2 -174.02,-544.5 -198.39,-102.3 -442.13,-24.4 -544.41,174"
           style="fill:#59e041;fill-opacity:1;fill-rule:nonzero;stroke:none"
           id="path1867" /></g><g
         id="g1869"
         transform="scale(1.52158)"><path
           d="m 6323.03,16260.3 c -5.1,0 -10.07,-0.3 -14.92,-0.8 -45.76,-4.8 -101.21,-34.2 -119.53,-102 l -126.41,-467.9 c -51.83,-191.9 -30.19,-394.9 60.91,-571.7 l 2052.75,-3981.4 c 47.51,-92.2 128.09,-160.4 226.87,-191.9 98.71,-31.6 203.86,-22.8 296.07,24.7 92.14,47.5 160.29,128.1 191.84,226.9 31.61,98.8 22.81,203.9 -24.71,296 l -2419.42,4692.7 c -28.78,55.9 -80.16,75.4 -123.45,75.4 m 2198.29,-5367.2 c -43.11,0 -86.42,6.7 -128.68,20.2 -107.12,34.2 -194.47,108.2 -245.99,208.1 l -2052.77,3981.5 c -94.9,184 -117.42,395.4 -63.41,595.2 l 126.4,468 c 18.94,70.1 75.54,118.4 147.77,126.1 72.24,7.8 137.77,-27.6 171.04,-92.2 l 2419.4,-4692.7 c 51.59,-100 61.12,-214 26.88,-321.1 -34.24,-107.1 -108.18,-194.6 -208.14,-246.1 -60.53,-31.2 -126.25,-47 -192.5,-47"
           style="fill:#000072;fill-opacity:1;fill-rule:nonzero;stroke:none"
           id="path1871" /></g><g
         id="g1873"
         transform="scale(1.51799)"><path
           d="m 6113.94,16050.3 40.45,149.7 c 13.03,48.2 44.48,81.9 82.65,100 -31.49,-22.4 -54.74,-55.5 -65.61,-95.7 l -38.18,-141.3 c -6.71,-3.8 -13.17,-8 -19.31,-12.7"
           style="fill:#b1fef6;fill-opacity:1;fill-rule:nonzero;stroke:none"
           id="path1875" /></g><g
         id="g1877"
         transform="scale(1.51788)"><path
           d="m 8805.65,11316.7 c -14.56,0 -29.05,0.7 -43.48,2.3 L 6348.9,15999.7 c -10.19,19.8 -23.34,36 -38.42,48.7 3.97,21.4 8.81,42.8 14.54,63.9 l 49.47,183.2 c 7.25,-1.9 14.5,-4.4 21.63,-7.6 19.01,-13.5 35.54,-32.1 47.79,-55.9 l 2425.32,-4704.1 c 32.41,-62.9 46.77,-130.3 44.99,-196.4 -35.83,-10 -72.33,-14.8 -108.57,-14.8 m -2524.89,4751.2 c -21.79,10.9 -45.7,16.1 -69.57,16.1 -13.24,0 -26.46,-1.5 -39.31,-4.8 l 31.8,117.8 c 18.37,67.9 73.95,97.3 119.83,102.2 4.86,0.5 9.84,0.8 14.96,0.8 1.65,0 3.31,-0.1 4.97,-0.1 l -62.68,-232"
           style="fill:#bdf3b3;fill-opacity:1;fill-rule:nonzero;stroke:none"
           id="path1879" /></g><g
         id="g1881"
         transform="scale(1.51941)"><path
           d="m 6127.53,16048 38.14,141.2 c 10.86,40.2 34.09,73.2 65.55,95.6 21.37,10.1 44.84,15.2 68.36,15.2 13.63,0 27.27,-1.7 40.52,-5.2 l -3.06,-11.3 c -1.67,0 -3.32,0 -4.97,0 -5.11,0 -10.09,-0.2 -14.95,-0.7 -45.82,-4.9 -101.35,-34.3 -119.7,-102.2 l -31.77,-117.6 c -13.25,-3.4 -26.09,-8.4 -38.12,-15 m 262.13,223.5 c -7.12,3.2 -14.36,5.7 -21.61,7.5 l 1.29,4.7 c 7.01,-3.4 13.82,-7.5 20.32,-12.2"
           style="fill:#9999c7;fill-opacity:1;fill-rule:nonzero;stroke:none"
           id="path1883" /></g><g
         id="g1885"
         transform="scale(1.49626)"><path
           d="m 8828.32,11213.9 c -149.04,0 -292.86,81.2 -365.91,222.9 l -2087.45,4048.8 c -94.34,183 -116.88,394.6 -63.19,593.3 l 59.72,221.1 c 10.63,-5.3 20.75,-11.9 30.14,-19.8 -33.22,-179.3 -6.2,-365.3 77.94,-528.5 l 2087.5,-4048.8 c 65.77,-127.6 188.94,-206.1 321.67,-220.4 l 12.23,-23.8 c 36.23,-70.2 49.79,-145.9 44.24,-219.2 60.89,71.7 95.24,162.4 97.78,255.7 5.68,1.6 11.36,3.3 16.98,5.2 -0.54,-38.5 -6.82,-77.1 -18.92,-114.8 -18.58,-58.3 -49.72,-110.2 -90.89,-153.1 -40.1,-12.6 -81.2,-18.6 -121.84,-18.6"
           style="fill:#3e9c50;fill-opacity:1;fill-rule:nonzero;stroke:none"
           id="path1887" /></g><g
         id="g1889"
         transform="scale(1.51935)"><path
           d="m 8814.17,11061.8 c 40.54,42.2 71.21,93.4 89.51,150.8 11.91,37.1 18.1,75.1 18.62,113 5.4,1.8 10.73,3.7 16.06,5.6 0,-93.8 -32.71,-185.3 -92.54,-258 -10.46,-4.3 -20.99,-8.1 -31.65,-11.4 m -2444.58,5222.6 c -9.4,4.7 -19.21,8.4 -29.23,11.1 l 1.23,4.5 c 10.4,-0.6 20.78,-2.1 30.92,-4.8 l -2.92,-10.8"
           style="fill:#000072;fill-opacity:1;fill-rule:nonzero;stroke:none"
           id="path1891" /></g><g
         id="g1893"
         transform="scale(1.51787)"><path
           d="m 8817.87,11079.5 c 5.47,72.3 -7.9,146.9 -43.61,216.1 l -12.05,23.5 c 14.42,-1.6 28.92,-2.4 43.48,-2.4 36.23,0 72.73,4.9 108.57,14.9 -2.5,-92 -36.37,-181.4 -96.39,-252.1 m -2507.37,4969 c -9.25,7.7 -19.23,14.3 -29.71,19.5 l 62.68,232 c 10.11,-0.4 20.57,-1.8 31.04,-4.5 l -49.47,-183.1 c -5.72,-21.2 -10.57,-42.5 -14.54,-63.9"
           style="fill:#84aa9f;fill-opacity:1;fill-rule:nonzero;stroke:none"
           id="path1895" /></g><g
         id="g1897"
         transform="scale(1.51893)"><path
           d="m 6370.09,16284.2 c -10.47,2.7 -20.93,4.1 -31.03,4.5 l 3.07,11.3 c 10.02,-2.6 19.83,-6.3 29.24,-11.1 l -1.28,-4.7"
           style="fill:#6b6bad;fill-opacity:1;fill-rule:nonzero;stroke:none"
           id="path1899" /></g><g
         id="g1901"
         transform="scale(1.38633)"><path
           d="m 7277.23,15698.8 c -62.69,0 -128.64,8.4 -197.77,27.3 -47.31,13 -75.17,61.8 -62.21,109.1 12.93,47.3 61.74,75.3 109.12,62.3 447.61,-122.6 687.67,323.2 697.7,342.3 22.72,43.3 76.39,60.2 119.81,37.5 43.35,-22.7 60.3,-76.1 37.73,-119.5 -90.97,-175.3 -341.34,-459 -704.38,-459"
           style="fill:#000072;fill-opacity:1;fill-rule:nonzero;stroke:none"
           id="path1903" /></g><g
         id="g1905"
         transform="scale(1.23271)"><path
           d="m 9234.93,15623.8 c -70.5,0 -144.65,9.5 -222.44,30.9 -53.13,14.5 -84.53,69.5 -69.93,122.6 14.52,53.2 69.36,84.6 122.74,70 503.2,-137.8 773.34,363.6 784.61,385 25.64,48.8 85.91,67.7 134.74,42.2 48.75,-25.5 67.85,-85.6 42.45,-134.5 -102.31,-197 -383.89,-516.2 -792.17,-516.2"
           style="fill:#000072;fill-opacity:1;fill-rule:nonzero;stroke:none"
           id="path1907" /></g><g
         id="g1909"
         transform="scale(1.53252)"><path
           d="m 6278.63,16032 c -1.15,0 -2.39,-0.1 -3.66,-0.1 -17.59,-1.9 -21.06,-14.8 -22.21,-19 l -125.5,-464.6 c -44.13,-163.5 -25.71,-336.3 51.87,-486.8 l 2038.11,-3953.1 c 33.47,-64.8 90.11,-112.8 159.67,-135 69.43,-22.2 143.43,-16 208.35,17.4 64.86,33.5 112.82,90.2 135.01,159.6 22.25,69.5 16.05,143.5 -17.42,208.4 L 6300.71,16018 c -1.87,3.6 -7.27,14 -22.08,14 z m 2182,-5329 c -54.29,0 -108.84,8.5 -162.02,25.5 -134.94,43.1 -244.95,136.2 -309.88,262.1 l -2038.11,3953 c -107.09,207.7 -132.48,446.3 -71.56,671.8 l 125.5,464.6 c 30.68,113.6 126.14,195.1 243.2,207.5 116.9,12.5 227.52,-47.1 281.48,-151.7 l 2402.12,-4659.2 c 64.92,-125.9 76.93,-269.5 33.8,-404.5 -43.13,-134.9 -136.18,-244.9 -262.12,-309.8 -76.21,-39.4 -159.02,-59.3 -242.41,-59.3"
           style="fill:#000072;fill-opacity:1;fill-rule:nonzero;stroke:none"
           id="path1911" /></g></g></g></svg>
