<?xml version="1.0" encoding="UTF-8" standalone="no"?>
<svg
   xmlns:dc="http://purl.org/dc/elements/1.1/"
   xmlns:cc="http://creativecommons.org/ns#"
   xmlns:rdf="http://www.w3.org/1999/02/22-rdf-syntax-ns#"
   xmlns:svg="http://www.w3.org/2000/svg"
   xmlns="http://www.w3.org/2000/svg"
   xmlns:sodipodi="http://sodipodi.sourceforge.net/DTD/sodipodi-0.dtd"
   xmlns:inkscape="http://www.inkscape.org/namespaces/inkscape"
   version="1.1"
   id="svg10"
   xml:space="preserve"
   width="4014.6167"
   height="2843.3662"
   viewBox="0 0 4014.6167 2843.3662"
   sodipodi:docname="6-02.eps"
   inkscape:version="1.0.1 (c497b03c, 2020-09-10)"><metadata
     id="metadata16"><rdf:RDF><cc:Work
         rdf:about=""><dc:format>image/svg+xml</dc:format><dc:type
           rdf:resource="http://purl.org/dc/dcmitype/StillImage" /><dc:title></dc:title></cc:Work></rdf:RDF></metadata><defs
     id="defs14" /><sodipodi:namedview
     pagecolor="#ffffff"
     bordercolor="#666666"
     borderopacity="1"
     objecttolerance="10"
     gridtolerance="10"
     guidetolerance="10"
     inkscape:pageopacity="0"
     inkscape:pageshadow="2"
     inkscape:window-width="1792"
     inkscape:window-height="959"
     id="namedview12"
     showgrid="false"
     inkscape:zoom="0.1378125"
     inkscape:cx="1933.3326"
     inkscape:cy="1446.66"
     inkscape:window-x="0"
     inkscape:window-y="25"
     inkscape:window-maximized="1"
     inkscape:current-layer="g20" /><g
     id="g18"
     inkscape:groupmode="layer"
     inkscape:label="ink_ext_XXXXXX"
     transform="matrix(1.3333333,0,0,-1.3333333,-733.33411,4113.3265)"><g
       id="g20"
       transform="scale(0.1)"><g
         id="g22"
         transform="scale(2.45399)" /><g
         id="g26"
         transform="scale(2.18464)"><path
           d="m 9408.79,4359.85 c -3805.89,0 -6891.21,412.52 -6891.21,921.39 0,146.25 254.73,284.53 708.14,407.35 157.25,-250.53 524.98,-454.86 1131.39,-454.86 h 1409.34 c 57.76,-23.07 117.09,-43.99 177.97,-62.8 256.29,-79.15 540.45,-118.56 846.82,-118.56 377.04,0 787.64,59.69 1220.98,178.52 180.35,-104.59 447.9,-165.93 784.94,-177.24 0.82,-0.04 1.64,-0.04 2.51,-0.04 h 5412.53 c 685.1,0 1161.3,171.1 1340.7,481.86 27.2,47.19 47,96.54 59.4,147.48 440.7,-121.39 687.7,-257.66 687.7,-401.71 0,-508.87 -3085.3,-921.39 -6891.21,-921.39"
           style="fill:#09a2e3;fill-opacity:1;fill-rule:nonzero;stroke:none"
           id="path28" /></g><path
         d="M 15106.1,11596.3 H 9518.72 c -3340,0 -3340,2971.2 0,2971.2 h 3532.08 l 2055.3,-2971.2"
         style="fill:#60547b;fill-opacity:1;fill-rule:nonzero;stroke:none"
         id="path30" /><path
         d="M 11936.4,11758.7 H 9518.71 c -1343.85,0 -2127.82,508.3 -2304.24,1075.3 415.24,-245.4 1009.99,-405.1 1784.84,-405.1 h 2070.19 c 261.6,-258.8 550.7,-482.4 866.9,-670.2"
         style="fill:#433b78;fill-opacity:1;fill-rule:nonzero;stroke:none"
         id="path32" /><path
         d="m 7208.3,12854.8 c -21.37,75.1 -32.1,151.1 -32.1,227.1 0,657.5 804.64,1323.1 2342.51,1323.1 h 313.83 c 21.76,-57.9 44.07,-114.9 67.02,-171.4 H 9707.6 c -1589.6,0 -2422.7,-673.3 -2499.3,-1378.8"
         style="fill:#b7b2c3;fill-opacity:1;fill-rule:nonzero;stroke:none"
         id="path34" /><g
         id="g36"
         transform="scale(2.13961)"><path
           d="m 14620.3,5237.35 c -35.5,-1.12 -71.9,-1.54 -109,-1.54 H 8984.94 c -48.56,1.54 -95.34,4.39 -140.4,7.94 -1618.98,131.29 -920.07,1532.05 2004.36,1431.19 L 8180.73,8489.71 c 173.02,177.88 353.99,340.72 540.89,488.36 657.22,519.3 1386.18,850.57 2098.98,993.78 896.1,180.35 1766,63.55 2434.3,-350.02 779.2,-481.53 1284.2,-1366.27 1236.7,-2653.14 117,-15.47 228.3,-38.18 333.1,-66.88 87.8,-24.07 171,-52.3 249.1,-84.08 1068.6,-434.99 1226.2,-1535.14 -453.5,-1580.38"
           style="fill:#ffffff;fill-opacity:1;fill-rule:nonzero;stroke:none"
           id="path38" /></g><g
         id="g40"
         transform="scale(2.09361)"><path
           d="m 10781.4,6815.03 c -917.47,0 -1510.42,-150.26 -1856.28,-283.91 -452.66,-174.87 -730.99,-419.66 -744.6,-654.85 -15.43,-267.48 313.86,-461.17 859.38,-505.4 51.25,-4.01 98.01,-6.64 142.81,-8.07 h 5647.39 c 40.9,0 77.2,0.53 111.1,1.58 v 0 c 738.9,19.87 1201.3,243.64 1268.6,613.96 64.6,355.66 -268.1,757.88 -809.3,978.12 -80.3,32.72 -165.6,61.47 -253.2,85.5 -109,29.85 -223.1,52.73 -338.8,68.02 l -10.7,1.43 0.3,10.84 c 44.8,1212.65 -402.1,2171.8 -1258.2,2700.89 -672.3,416.06 -1552.8,542.56 -2479.1,356.16 -752.5,-151.2 -1492.48,-501.6 -2140.12,-1013.3 -188.67,-149.03 -370.84,-313.1 -541.7,-487.87 l 2749.22,-1869.88 -41.3,1.43 c -105.6,3.63 -207.4,5.35 -305.5,5.35 M 14830.1,5338.92 H 9182.33 c -45.56,1.43 -92.66,4.11 -144.34,8.17 -559.9,45.37 -897.59,248.71 -881.3,530.56 14.14,244.8 298.19,497.42 759.83,675.78 380.07,146.78 1056.65,313.76 2130.08,281.47 l -2704.59,1839.46 9.89,10.22 c 174.48,179.31 360.81,347.63 553.97,500.19 650.56,513.99 1394.13,866.03 2150.23,1017.93 932.3,187.6 1818.9,60 2496.3,-359.26 861.2,-532.19 1312,-1494.69 1270,-2711.25 113.1,-15.38 224.5,-37.98 331.2,-67.21 88.6,-24.26 174.7,-53.3 256,-86.36 551.7,-224.58 890.4,-637.7 823.7,-1004.58 -69.5,-382.4 -540.2,-613.34 -1291.4,-633.54 h 0.1 c -34.2,-1.05 -70.8,-1.58 -111.9,-1.58"
           style="fill:#000072;fill-opacity:1;fill-rule:nonzero;stroke:none"
           id="path42" /></g><path
         d="M 15106.1,11433.8 H 9518.71 c -1832.75,0 -2667.49,854.3 -2667.49,1648.1 0,793.8 834.74,1648.1 2667.49,1648.1 h 3532.09 c 89.8,0 162.5,-72.7 162.5,-162.5 0,-89.7 -72.7,-162.5 -162.5,-162.5 H 9518.71 c -1537.87,0 -2342.51,-665.6 -2342.51,-1323.1 0,-657.5 804.64,-1323.2 2342.51,-1323.2 h 5587.39 c 89.7,0 162.5,-72.7 162.5,-162.4 0,-89.8 -72.8,-162.5 -162.5,-162.5"
         style="fill:#000072;fill-opacity:1;fill-rule:nonzero;stroke:none"
         id="path44" /><g
         id="g46"
         transform="scale(1.64824)"><path
           d="M 15590.6,9077.14 C 15455.5,8557.43 15113.1,7734.07 14589.4,7255.92 L 13226,7936.89 c 0,0 -1340.5,703.91 -1302.4,1003.01 33,258.7 -416.8,2139.7 -601.9,2714.7 154.2,121.8 311.1,235.5 470.8,341.2 723.6,480.2 1495.7,796.5 2254,948.9 7.7,1.4 97.4,-15.5 232.3,-66.2 585.1,-220 2021.2,-1074.3 1311.8,-3801.36"
           style="fill:#60547b;fill-opacity:1;fill-rule:nonzero;stroke:none"
           id="path48" /></g><g
         id="g50"
         transform="scale(1.75654)"><path
           d="m 16300,11457.9 c -583.1,387.8 -1302.3,581.9 -2073.3,581.9 -207.1,0 -417.9,-14 -630.9,-42 -72.5,36.4 -139.3,64.9 -197.4,86.7 -4.7,1.8 -9.5,3.5 -14.1,5.2 262.9,43 521.7,64.3 773.8,64.3 785.4,0 1504.7,-206.1 2073.4,-600.4 21.2,-28.5 44.2,-60.4 68.5,-95.7"
           style="fill:#ffffff;fill-opacity:1;fill-rule:nonzero;stroke:none"
           id="path52" /></g><g
         id="g54"
         transform="scale(1.46512)"><path
           d="m 15164.1,14127.4 c -14.9,23.7 -29.9,47.1 -45.1,70.5 21.2,30.6 41.5,61 61,91.6 213.4,66.1 428.3,121 643.9,164.3 74.4,15 148.6,28.5 222.5,40.6 5.6,-2 11.3,-4.1 17,-6.3 69.6,-26.1 149.7,-60.2 236.6,-103.9 -138.5,-18.2 -277.7,-41.4 -417.4,-69.5 -238.7,-48 -478.8,-110.4 -718.5,-187.3"
           style="fill:#b7b2c3;fill-opacity:1;fill-rule:nonzero;stroke:none"
           id="path56" /></g><g
         id="g58"
         transform="scale(1.55624)"><path
           d="m 15804.8,9049.7 c -28.6,0 -57.4,2.44 -86.6,7.58 -144.2,25.45 -308.9,51.41 -485.5,73.58 -57.7,25 -119.7,40.87 -183.7,46.14 -0.5,55.51 -44.6,101.39 -100.6,103.45 -147,5.4 -291.7,8.1 -434.2,8.1 -26.5,0 -52.9,-0.07 -79.2,-0.26 584.9,831.71 701.8,1814.41 347,2923.31 -76.5,239.4 -170.2,468.5 -279.2,686.3 1200.1,-611.4 1771.4,-1750.7 1793.3,-3350.97 3.9,-278.3 -223.6,-497.23 -491.3,-497.23"
           style="fill:#433b78;fill-opacity:1;fill-rule:nonzero;stroke:none"
           id="path60" /></g><g
         id="g62"
         transform="scale(1.93996)"><path
           d="m 15752.6,9230.77 -306.7,473.21 -343.5,529.62 c 335.2,217.4 637,207.4 833.9,80.1 321.6,-207.7 363.7,-728.28 -183.7,-1082.93"
           style="fill:#60547b;fill-opacity:1;fill-rule:nonzero;stroke:none"
           id="path64" /></g><g
         id="g66"
         transform="scale(1.89773)"><path
           d="m 15624.3,10391.3 c -15.8,17.5 -31.8,34.9 -48,52.1 132.5,70.6 263.3,106.8 385.3,106.8 26.1,0 51.8,-1.6 77,-4.9 102,-13.5 191.7,-53.7 261.4,-116.2 -1.1,-10.2 -2.5,-20.4 -4.5,-30.6 -86.1,50.1 -190,79 -306.6,79 -111.4,0 -234.5,-26.5 -364.6,-86.2"
           style="fill:#b7b2c3;fill-opacity:1;fill-rule:nonzero;stroke:none"
           id="path68" /></g><g
         id="g70"
         transform="scale(1.91736)"><path
           d="m 16171.5,7691.71 c -1.1,0 -2.1,0 -3.2,0.06 -46.8,1.72 -83.3,41.04 -81.6,87.83 41.9,1133.85 -306.5,2048.12 -1007.4,2644.1 -738.7,628 -1827.7,854.3 -2987.7,621 -810.6,-162.9 -1608.1,-540.6 -2306.49,-1092.43 -207.52,-163.92 -407.85,-344.8 -595.4,-537.56 -32.6,-33.54 -86.26,-34.32 -119.8,-1.67 -33.54,32.65 -34.32,86.26 -1.67,119.8 192.66,198.08 398.47,383.91 611.83,552.46 719.13,568.2 1541.53,957.4 2378.13,1125.5 1211.2,243.7 2352.4,3.9 3130.8,-658 742,-630.73 1111,-1591.89 1067.1,-2779.46 -1.7,-45.69 -39.2,-81.63 -84.6,-81.63"
           style="fill:#000072;fill-opacity:1;fill-rule:nonzero;stroke:none"
           id="path72" /></g><g
         id="g74"
         transform="scale(1.69156)"><path
           d="m 10477.6,14033.5 c 1151.4,2266.5 4169,346.7 2557.5,-1819.8 l -2557.5,1819.8"
           style="fill:#60547b;fill-opacity:1;fill-rule:nonzero;stroke:none"
           id="path76" /></g><g
         id="g78"
         transform="scale(1.48554)"><path
           d="m 15141.8,16216.2 c 0,0.1 0,0.1 0,0.3 0,-0.2 0,-0.2 0,-0.3 m -0.5,1 c -15.8,28.1 -32.4,55.7 -49.6,82.7 0,0.1 0,0.1 0,0.1 17.2,-27.1 33.8,-54.7 49.6,-82.8"
           style="fill:#088ed4;fill-opacity:1;fill-rule:nonzero;stroke:none"
           id="path80" /></g><g
         id="g82"
         transform="scale(1.48554)"><path
           d="m 14911.1,14002.8 c -170.3,261.1 -363.1,502.5 -574.6,722.4 501.5,357.2 746.6,898.4 757.6,1435.2 91.6,-122.1 168.5,-256.8 227.3,-402 -47,196.5 -125.9,378.4 -229.7,541.3 0,0.1 0,0.2 0,0.3 17.2,-27.1 33.8,-54.7 49.6,-82.8 0.1,-0.3 0.3,-0.5 0.5,-0.7 0,-0.2 0,-0.2 0,-0.3 327.3,-581.3 347.2,-1377.9 -230.7,-2213.4"
           style="fill:#433b78;fill-opacity:1;fill-rule:nonzero;stroke:none"
           id="path84" /></g><g
         id="g86"
         transform="scale(1.56209)"><path
           d="m 11395.6,15290.1 v 0 c 396.5,713.8 972.9,1009.9 1528.9,1009.9 185.5,0 368.5,-32.9 542,-94.2 -173.4,61.2 -356.6,94.2 -541.9,94.2 -556,0 -1132.5,-296.2 -1529,-1009.9 m 2074,914.5 c -0.2,0.1 -0.4,0.2 -0.7,0.3 0.3,-0.1 0.5,-0.2 0.7,-0.3 m -1.6,0.7 c -0.5,0.1 -0.9,0.2 -1.3,0.3 0.4,-0.1 0.9,-0.2 1.3,-0.3"
           style="fill:#91e8ff;fill-opacity:1;fill-rule:nonzero;stroke:none"
           id="path88" /></g><g
         id="g90"
         transform="scale(1.56209)"><path
           d="m 11588.6,15239.6 c -63.9,18.3 -128.3,35.1 -193,50.5 396.5,713.7 973,1009.9 1529,1009.9 185.3,0 368.5,-33 541.9,-94.2 0.1,-0.1 0.1,-0.1 0.2,-0.2 0.4,-0.1 0.8,-0.2 1.3,-0.3 0.2,-0.2 0.7,-0.3 0.9,-0.4 0.3,-0.1 0.5,-0.2 0.7,-0.3 357.2,-127.1 673,-374.8 882.5,-703.7 2.4,-44 3.2,-88.2 2.3,-132.5 -320,426.7 -827.2,691.2 -1352.9,691.2 -503.8,0 -1024.6,-243.2 -1412.9,-820"
           style="fill:#b7b2c3;fill-opacity:1;fill-rule:nonzero;stroke:none"
           id="path92" /></g><g
         id="g94"
         transform="scale(1.48552)"><path
           d="m 15321.6,15758.6 c -58.7,145.2 -135.7,279.9 -227.2,402.1 0.9,46.5 0.1,93 -2.5,139.3 103.8,-163 182.7,-344.9 229.7,-541.4"
           style="fill:#aaa7c2;fill-opacity:1;fill-rule:nonzero;stroke:none"
           id="path96" /></g><g
         id="g98"
         transform="scale(1.49716)"><path
           d="M 8021.19,14956.3 C 5850.62,16300 3453.48,13239.9 6368.53,11681.1 l 1652.66,3275.2"
           style="fill:#60547b;fill-opacity:1;fill-rule:nonzero;stroke:none"
           id="path100" /></g><g
         id="g102"
         transform="scale(1.40428)"><path
           d="m 5504.86,15114.8 c 0.19,0.4 0.38,0.8 0.57,1.2 -0.15,-0.3 -0.42,-0.9 -0.57,-1.2 m 0.8,1.8 c 305.02,679.4 1026.65,1183.4 1856.96,1183.4 3.78,0 7.55,0 11.33,0 -3.78,0 -7.41,0 -11.19,0 -830.33,0 -1552.03,-504 -1857.1,-1183.4"
           style="fill:#91e8ff;fill-opacity:1;fill-rule:nonzero;stroke:none"
           id="path104" /></g><g
         id="g106"
         transform="scale(1.40428)"><path
           d="m 5488.51,13737.9 c -200.13,474.3 -170.82,958.7 16.35,1376.9 0.15,0.3 0.42,0.9 0.57,1.2 0.08,0.2 0.15,0.4 0.23,0.6 305.07,679.4 1026.77,1183.4 1857.1,1183.4 3.78,0 7.41,0 11.19,0 345.58,-2 709.75,-91.2 1070.22,-291.5 -65.08,-54.7 -128.82,-111.3 -190.99,-169.4 -268.67,106.3 -535.86,154.5 -792.85,154.5 -1231.9,0 -2224.67,-1109.8 -1971.82,-2255.7"
           style="fill:#b7b2c3;fill-opacity:1;fill-rule:nonzero;stroke:none"
           id="path108" /></g><g
         id="g110"
         transform="scale(1.51786)"><path
           d="M 6500.57,9751.37 C 7282.36,7307.59 9497.26,6982.01 11859.2,7737.67 14221.1,8493.28 15835.7,10044 15053.8,12487.8 14272,14931.5 11723.6,16300 9361.61,15544.3 6999.66,14788.7 5718.75,12195.1 6500.57,9751.37"
           style="fill:#ffffff;fill-opacity:1;fill-rule:nonzero;stroke:none"
           id="path112" /></g><g
         id="g114"
         transform="scale(1.51947)"><path
           d="m 6509.34,9746.01 c 365.87,-1143.55 1063.55,-1881.57 2073.7,-2193.58 884.19,-273.13 2010.86,-206.46 3258.46,192.69 1247.6,399.15 2203.8,998.9 2765.3,1734.49 641.5,840.39 781.2,1846.39 415.4,2989.89 -777,2428.6 -3318.5,3793.6 -5665.53,3042.7 C 8219.83,15148.5 7297.6,14348.5 6759.78,13259.5 6221.85,12170.3 6132.92,10922.6 6509.34,9746.01 M 9764.31,7354.46 c -431.33,0 -830.95,55.35 -1190.94,166.57 C 7552.29,7836.4 6847.31,8581.6 6478,9736.01 c -379.03,1184.69 -289.44,2441.29 252.23,3538.09 541.83,1097 1471.04,1903 2616.43,2269.5 2364.34,756.4 4924.44,-618.2 5706.84,-3064.1 369.4,-1154.3 227.9,-2170.4 -420.5,-3019.9 C 14067.4,8718.68 13105.6,8114.99 11851.6,7713.8 11104.5,7474.76 10400,7354.46 9764.31,7354.46"
           style="fill:#000072;fill-opacity:1;fill-rule:nonzero;stroke:none"
           id="path116" /></g><g
         id="g118"
         transform="scale(1.42554)"><path
           d="m 10408,7970.38 c -446.44,0 -859.55,57.1 -1230.92,171.87 -489.42,151.17 -908.14,399.57 -1254.05,742.88 394.31,-122.13 820.75,-179.02 1269.21,-179.02 698.96,0 1451.26,138.26 2217.96,383.57 2514.8,804.54 4233.9,2455.62 3401.4,5057.82 -226.9,709.2 -593.6,1333.3 -1057.9,1849.9 989.2,-587.2 1783.2,-1537.6 2166.5,-2735.6 379.8,-1187.1 235.9,-2229.8 -427.6,-3099.1 -7.2,-9.4 -14.5,-18.9 -21.9,-28.4 -783.8,-24.6 -1489.9,-127.6 -2073.7,-304.41 -687,-207.99 -1183.9,-512.02 -1399.3,-856.03 -134.9,-215.49 -151.9,-441.65 -48.1,-636.88 27.3,-51.21 61.8,-99.4 103.6,-144.5 -583.6,-147.81 -1136.1,-222.1 -1645.2,-222.1"
           style="fill:#b2b2d4;fill-opacity:1;fill-rule:nonzero;stroke:none"
           id="path120" /></g><g
         id="g122"
         transform="scale(1.52891)"><path
           d="M 6554.78,9713.24 C 6908.89,8606.43 7582.37,7892.66 8556.6,7591.73 c 861.06,-266.01 1962.2,-199.82 3184.4,191.18 1222.3,391.06 2157.4,976.38 2704.1,1692.7 618.7,810.49 752.8,1782.69 398.7,2889.49 -757.1,2366.4 -3232.4,3696.8 -5517.51,2965.6 C 8219.89,14976.8 7322.26,14198 6798.62,13137.8 6274.43,12076.4 6187.84,10860.2 6554.78,9713.24 m 3149.1,-2494 c -437.76,0 -843.8,56.32 -1210.01,169.4 -1044.47,322.65 -1765.04,1082.93 -2141.53,2259.84 -383.82,1199.72 -292.99,2472.32 255.75,3583.42 549.34,1112.3 1491.65,1929.6 2653.45,2301.3 2396.96,766.8 4991.86,-625.3 5784.66,-3103.3 376.5,-1176.9 231.1,-2214.3 -432.1,-3083.27 -573.3,-751.05 -1544.4,-1361.81 -2808.3,-1766.15 -751.2,-240.3 -1460.5,-361.24 -2101.92,-361.24"
           style="fill:#000072;fill-opacity:1;fill-rule:nonzero;stroke:none"
           id="path124" /></g><g
         id="g126"
         transform="scale(1.57206)"><path
           d="m 14025.9,13038.8 c -21.4,0 -43.1,6.6 -61.6,20.4 -45.8,34.1 -55.3,98.8 -21.2,144.6 683,918.3 488.3,1648 311.4,2001.3 -269.2,537.9 -821.8,886.5 -1407.6,888.2 -1.4,0 -3,0 -4.5,0 -611.4,0 -1135.5,-369 -1476.3,-1039.8 -25.8,-50.9 -88,-71.2 -138.9,-45.4 -50.9,25.9 -71.2,88.1 -45.3,139 372.3,732.9 977.5,1152.9 1660.7,1152.9 1.7,0 3.3,0 5,0 663.1,-2 1287.9,-395.4 1591.8,-1002.4 337.1,-673.4 216.7,-1481.5 -330.5,-2217.1 -20.3,-27.3 -51.4,-41.7 -83,-41.7"
           style="fill:#000072;fill-opacity:1;fill-rule:nonzero;stroke:none"
           id="path128" /></g><g
         id="g130"
         transform="scale(1.4251)"><path
           d="m 6690.42,12157.6 c -18.14,0 -36.54,4.4 -53.65,13.5 -943.99,504.9 -1468.83,1216.8 -1477.84,2004.6 -7.95,694.2 392.77,1354.5 1045.8,1723.2 710.49,401.1 1542.28,368.4 2282.02,-89.5 53.54,-33.2 70.1,-103.5 36.98,-156.9 -33.19,-53.6 -103.43,-70.1 -156.98,-37 -666.89,412.9 -1414.08,443.8 -2049.91,84.8 -580.59,-327.7 -936.91,-910.9 -929.92,-1522 8.02,-700.9 490.09,-1342.3 1357.36,-1806.1 55.54,-29.7 76.48,-98.8 46.79,-154.3 -20.54,-38.4 -59.93,-60.3 -100.65,-60.3"
           style="fill:#000072;fill-opacity:1;fill-rule:nonzero;stroke:none"
           id="path132" /></g><g
         id="g134"
         transform="scale(1.54701)"><path
           d="m 9764.73,15076.3 c -607.75,1223.7 -1711.24,381 -897.99,-223.2"
           style="fill:#ffffff;fill-opacity:1;fill-rule:nonzero;stroke:none"
           id="path136" /></g><g
         id="g138"
         transform="scale(1.49438)"><path
           d="m 9169.02,15362.8 c -241.57,179.4 -347.5,399.1 -290.62,602.7 46.64,167.1 199.28,286.7 388.85,304.7 317.39,29.8 637.59,-215 856.35,-655.4 l -30,-15 c -212.31,427.6 -519.93,665.7 -823.2,637 -175.66,-16.6 -316.86,-126.6 -359.82,-280.2 -52.93,-189.6 48.58,-396.2 278.38,-566.9 l -19.94,-26.9"
           style="fill:#000072;fill-opacity:1;fill-rule:nonzero;stroke:none"
           id="path140" /></g><g
         id="g142"
         transform="scale(1.45984)"><path
           d="m 9215.39,15912 c -821.94,388 -1088.48,-654.6 -97.48,-549.6"
           style="fill:#ffffff;fill-opacity:1;fill-rule:nonzero;stroke:none"
           id="path144" /></g><g
         id="g146"
         transform="scale(1.43799)"><path
           d="m 9123.37,15571.1 c -249.58,0 -433.52,81.6 -503.75,228.2 -54.04,112.6 -28.38,246.2 65.29,340.5 148.2,149.1 401.68,160.2 677.9,29.7 l -14.82,-31.4 c -262.38,123.9 -500.98,115.3 -638.39,-22.8 -83.17,-83.7 -106.19,-201.8 -58.69,-301 75.8,-158 301.53,-233.2 603.76,-201.2 l 3.68,-34.6 c -46.8,-4.9 -91.86,-7.4 -134.98,-7.4"
           style="fill:#000072;fill-opacity:1;fill-rule:nonzero;stroke:none"
           id="path148" /></g><g
         id="g150"
         transform="scale(1.37621)"><path
           d="m 9370.34,16300 c -678.09,-488.7 56.53,-1055.2 362.44,-363"
           style="fill:#ffffff;fill-opacity:1;fill-rule:nonzero;stroke:none"
           id="path152" /></g><g
         id="g154"
         transform="scale(1.37746)"><path
           d="m 9343.36,15582.5 c -6.97,0 -13.94,0.3 -20.99,0.7 -117.24,8.2 -213.72,86 -245.74,198.3 -47.48,166.5 55.18,360.4 274.56,518.5 l 21.28,-29.4 c -206.47,-148.8 -304.04,-327.9 -260.92,-479.1 27.73,-97.5 111.51,-164.9 213.36,-172 148.9,-10 291.99,105.7 382.45,310.5 l 33.17,-14.7 c -92.78,-210 -240.07,-332.7 -397.17,-332.8"
           style="fill:#000072;fill-opacity:1;fill-rule:nonzero;stroke:none"
           id="path156" /></g><g
         id="g158"
         transform="scale(1.50314)"><path
           d="m 9125.42,15178.5 c -22.41,0 -45.03,7 -64.39,21.3 -268.18,199.3 -388.79,459.9 -322.46,697.3 56.61,202.9 239.56,347.8 466.02,369.2 354.46,33.7 706.92,-228.8 941.91,-701.9 26.5,-53.5 4.7,-118.3 -48.7,-144.9 -53.5,-26.5 -118.36,-4.7 -144.91,48.7 -193.59,389.9 -465.82,607.4 -727.94,582.9 -136.58,-12.9 -245.82,-96.2 -278.15,-212.1 -41.91,-150 46.7,-319.7 243.16,-465.6 47.9,-35.7 57.88,-103.3 22.28,-151.3 -21.22,-28.5 -53.82,-43.6 -86.82,-43.6"
           style="fill:#000072;fill-opacity:1;fill-rule:nonzero;stroke:none"
           id="path160" /></g><g
         id="g162"
         transform="scale(1.44721)"><path
           d="m 9058.61,15376.4 c -398.07,0 -536.62,191.5 -579.6,281.2 -71.24,148.6 -38.55,323.8 83.2,446.3 176.89,177.9 469.04,196.1 781.5,48.6 56.11,-26.5 80.09,-93.4 53.62,-149.5 -26.46,-56.1 -93.35,-80.1 -149.46,-53.6 -262.3,123.8 -443.89,79.2 -526.39,-3.8 -54.73,-55 -70.07,-128.3 -40.01,-191 44.09,-92 199.56,-178.8 504.21,-146.5 61.85,6.4 116.92,-38.2 123.48,-99.8 6.5,-61.7 -38.14,-116.9 -99.84,-123.5 -53.97,-5.7 -104.14,-8.4 -150.71,-8.4"
           style="fill:#000072;fill-opacity:1;fill-rule:nonzero;stroke:none"
           id="path164" /></g><g
         id="g166"
         transform="scale(1.38752)"><path
           d="m 9276.04,15370.4 c -9.37,0 -18.67,0.4 -28.11,1 -158.56,11 -289.08,116.4 -332.39,268.5 -59.1,207.2 56.79,439.8 309.98,622.3 52.39,37.8 125.62,26 163.45,-26.5 37.77,-52.5 25.95,-125.7 -26.52,-163.5 -199.78,-143.9 -245.47,-284.6 -221.69,-368.1 16,-56.1 64.43,-95 123.38,-99 104.36,-7.3 209.95,86 282.16,249.4 26.16,59.1 95.21,85.9 154.45,59.8 59.17,-26.2 85.91,-95.3 59.75,-154.5 -108.61,-245.9 -288.22,-389.3 -484.46,-389.4"
           style="fill:#000072;fill-opacity:1;fill-rule:nonzero;stroke:none"
           id="path168" /></g><g
         id="g170"
         transform="scale(1.05359)"><path
           d="m 14125.1,15537.7 c 100.8,-315.1 550.4,-641.9 936.4,-518.5 386.1,123.5 562.3,650.7 461.5,965.8 -100.8,315 -440.6,299.1 -826.7,175.7 -386.1,-123.5 -672,-307.9 -571.2,-623"
           style="fill:#000072;fill-opacity:1;fill-rule:nonzero;stroke:none"
           id="path172" /></g><g
         id="g174"
         transform="scale(1.07541)"><path
           d="m 16276.3,13185.1 c -65.5,-261.2 -341.7,-487.8 -709.6,-627.4 -304.3,-115.5 -601.5,-144.1 -820.6,-64.2 -143.1,52.3 -253,150.7 -310,301.2 -144.5,381.6 145.8,845.3 648.5,1035.9 502.7,190.5 1027.5,35.5 1171.9,-346.5 38.7,-102.3 43.5,-202.9 19.8,-299"
           style="fill:#000072;fill-opacity:1;fill-rule:nonzero;stroke:none"
           id="path176" /></g><g
         id="g178"
         transform="scale(1.07384)"><path
           d="m 16300,13204.3 c -65.6,-261.6 -342.1,-488.5 -710.6,-628.3 -304.7,-115.7 -602.4,-144.3 -821.8,-64.3 58.4,288.5 310.8,567.7 673.1,704.9 309.2,117.4 626.7,103.8 859.3,-12.3"
           style="fill:#ff2c4b;fill-opacity:1;fill-rule:nonzero;stroke:none"
           id="path180" /></g><path
         d="m 15954.1,16099.3 101.6,-702.3 c 3.8,-26.6 -14.6,-51.3 -41.2,-55.2 -21.1,-3 -41,8 -50.3,25.9 l -324.9,630.9 c -42.4,82.3 -10.1,183.3 72.2,225.7 82.3,42.4 183.3,10 225.7,-72.2 8.7,-16.8 14.3,-35.1 16.9,-52.8"
         style="fill:#000072;fill-opacity:1;fill-rule:nonzero;stroke:none"
         id="path182" /><g
         id="g184"
         transform="scale(1.30975)"><path
           d="m 12267,13908.8 c 630.2,-249.8 1115.7,-776.7 1492.2,-1512.7 105.4,-206.1 329.2,-323.1 559.3,-297.6 1158.7,128.2 1622,1574 666.1,2720.9 -1249,1480.6 -2985.8,716.9 -3062.5,-359.6 -17,-238.1 123,-463.1 344.9,-551"
           style="fill:#60547b;fill-opacity:1;fill-rule:nonzero;stroke:none"
           id="path186" /></g><g
         id="g188"
         transform="scale(1.20052)"><path
           d="m 12059.5,14684.3 c -401.7,-621 -499.2,-1396.6 -367.7,-2288.8 36.8,-250 -87.9,-495.5 -308.5,-618.6 -1110.5,-619.9 -2437.73,371.1 -2314.78,1995.4 172.09,2106.2 2198.68,2527.7 2948.48,1619.8 165.8,-200.8 184,-489.2 42.5,-707.8"
           style="fill:#60547b;fill-opacity:1;fill-rule:nonzero;stroke:none"
           id="path190" /></g><g
         id="g192"
         transform="scale(1.15441)"><path
           d="m 15488.7,15103.5 c -168.8,0 -347.2,61.4 -505.7,212.5 -51.9,49.5 -53.9,131.7 -4.4,183.7 49.5,52 131.7,53.9 183.7,4.4 212.6,-202.6 454.9,-154.9 597.9,-52.4 132.1,94.6 248.4,287.2 141.2,518.5 -30.1,65.1 -1.9,142.3 63.3,172.5 65.2,30.2 142.3,1.9 172.5,-63.2 162.8,-351.3 4,-674.6 -225.6,-839.1 -116.5,-83.5 -265.5,-136.9 -422.9,-136.9"
           style="fill:#000072;fill-opacity:1;fill-rule:nonzero;stroke:none"
           id="path194" /></g><g
         id="g196"
         transform="scale(1.03071)"><path
           d="m 12448.6,15264.4 c -265.3,0 -513.6,119 -671.1,336.5 -47.2,65.1 -32.6,156.1 32.5,203.2 65.1,47.1 156.1,32.6 203.3,-32.5 165.4,-228.7 449.8,-252.6 658.2,-175 190.7,71 385.5,249.9 360.5,538.9 -7,80 52.3,150.5 132.3,157.5 80,7 150.7,-52.3 157.6,-132.4 32.3,-372.1 -183.1,-700.5 -548.7,-836.7 -107.7,-40.1 -217.5,-59.5 -324.6,-59.5"
           style="fill:#000072;fill-opacity:1;fill-rule:nonzero;stroke:none"
           id="path198" /></g><g
         id="g200"
         transform="scale(1.08761)"><path
           d="m 15343.4,13606.8 c -122.6,0 -250.5,-23.9 -375.2,-71.1 -210,-79.6 -383,-214.8 -486.8,-380.8 -95.7,-153 -119.7,-313.1 -67.5,-451 48.6,-128.1 153.7,-207.2 312.3,-235 168.4,-29.5 386.1,1.6 613,87.6 226.9,86 410.5,206.9 517.2,340.6 100.4,125.9 126.7,254.7 78.1,382.9 h -0.1 c -52.1,137.8 -176.1,241.9 -349.3,293.1 -76.3,22.5 -157.7,33.7 -241.7,33.7 z m -483.1,-1447.7 c -64.5,0 -126.6,5.1 -185.6,15.5 -262.2,45.9 -454,196.3 -540.1,423.5 -86.1,227.2 -53,481.3 93.5,715.3 138.3,221 363.6,399.2 634.2,501.7 270.8,102.5 557.5,118.3 807.6,44.5 264.7,-78.2 457.9,-246.5 544,-473.8 h -0.1 c 86.2,-227.1 42.2,-466.9 -123.9,-675.1 -141.5,-177.4 -364.6,-327.4 -644.9,-433.6 -206.2,-78.1 -404.9,-117.9 -584.7,-118"
           style="fill:#000072;fill-opacity:1;fill-rule:nonzero;stroke:none"
           id="path202" /></g><g
         id="g204"
         transform="scale(1.52371)"><path
           d="m 15867.9,9018.74 c 432.1,-965.87 -77.8,-1521.23 -1529.6,-1666.53 h -1721.5 c -2528.5,84.92 -1598.8,2176.14 2646.8,2019.94 256.5,24.94 499,-118.13 604.3,-353.41"
           style="fill:#60547b;fill-opacity:1;fill-rule:nonzero;stroke:none"
           id="path206" /></g><g
         id="g208"
         transform="scale(1.42973)"><path
           d="m 12080.9,8514.19 c -19.7,97.57 5.2,202.35 74.3,312.79 182.9,292.08 645.1,567.87 1268.4,756.58 652.2,197.52 1465.6,299.63 2373.7,299.63 152.6,0 307.8,-2.86 465.4,-8.67 1.5,-0.07 3,-0.07 4.4,-0.07 11.5,0 22.5,1.68 32.9,4.76 -34.7,-81.35 -115.8,-138.14 -209.6,-138.14 -1.4,0 -2.6,0.07 -3.9,0.07 -71.4,1.19 -142.1,1.82 -211.5,1.82 -2293.3,0 -3565.6,-643.41 -3794.1,-1228.77"
           style="fill:#b7b2c3;fill-opacity:1;fill-rule:nonzero;stroke:none"
           id="path210" /></g><g
         id="g212"
         transform="scale(2.19344)"><path
           d="m 14155.2,5107.33 h -324.8 c 0,0 -1028.2,828.15 0,1690.36 8.8,7.3 17.4,14.64 25.6,21.93 1754.9,-46.68 2444,-1712.29 299.2,-1712.29"
           style="fill:#60547b;fill-opacity:1;fill-rule:nonzero;stroke:none"
           id="path214" /></g><g
         id="g216"
         transform="scale(2.00228)"><path
           d="m 16300,6981.21 c -309.2,202.81 -742.5,347.55 -1261.5,362.98 16.7,15.58 33.8,31.22 51.6,46.85 1.7,-0.1 3.5,-0.2 5.3,-0.2 464.2,0.05 853.3,-104.33 1149,-257.56 22.6,-44.35 41.4,-95.69 55.6,-152.07"
           style="fill:#b7b2c3;fill-opacity:1;fill-rule:nonzero;stroke:none"
           id="path218" /></g><g
         id="g220"
         transform="scale(2.09904)"><path
           d="M 14791.7,5259.68 H 9158.51 c -0.91,0 -1.76,0 -2.62,0.05 -542.63,18.2 -912.13,161.03 -1040.48,402.23 -70.5,132.59 -58.93,286.18 32.68,432.53 146.26,233.63 483.75,440.11 950.3,581.36 535.05,162.03 1221.31,232.77 1984.41,204.72 42.7,-1.58 76.1,-37.45 74.5,-80.18 -1.6,-42.74 -37.1,-76.13 -80.2,-74.51 -746.3,27.44 -1414.93,-41.07 -1933.84,-198.19 -424.52,-128.53 -739.38,-316.38 -863.96,-515.33 -62.75,-100.24 -71.89,-193.66 -27.21,-277.7 98.19,-184.56 437.49,-304.23 907.7,-320.19 h 5631.91 c 646,0 1105.7,154.59 1261.4,424.14 84,145.64 74.2,323.01 -27.7,499.52 -204.6,354.4 -786.7,712.04 -1625.9,711.99 -42.8,0 -77.4,34.68 -77.4,77.41 0,42.74 34.6,77.42 77.4,77.42 900.9,0 1533.1,-396.47 1760,-789.41 130.7,-226.39 140.5,-458.78 27.6,-654.34 -186.7,-323.44 -682.3,-501.52 -1395.4,-501.52"
           style="fill:#000072;fill-opacity:1;fill-rule:nonzero;stroke:none"
           id="path222" /></g><g
         id="g224"
         transform="scale(1.93788)"><path
           d="m 15769.5,9156.82 c -27.5,0 -54.4,13.47 -70.4,38.24 -25.2,38.86 -14.2,90.77 24.7,115.95 406.9,263.74 447.2,607.63 312.5,815.49 -71.7,110.6 -188.8,181.7 -329.9,200.3 -166.9,22 -354.4,-30.8 -542.1,-152.5 -38.9,-25.1 -90.8,-14.1 -116,24.8 -25.2,38.9 -14.1,90.8 24.7,115.9 481.2,311.9 919.7,187.2 1104,-97.2 98.8,-152.5 123,-337.92 68,-522.09 -59.6,-200.06 -208.3,-381.76 -430,-525.42 -14.1,-9.08 -29.9,-13.47 -45.5,-13.47"
           style="fill:#000072;fill-opacity:1;fill-rule:nonzero;stroke:none"
           id="path226" /></g><g
         id="g228"
         transform="scale(1.89373)"><path
           d="m 15879.3,7927.63 c -126.6,12.26 -244.8,21.81 -343.9,28.99 -130.1,9.46 -212.3,145.8 -157.8,264.4 492.6,1071.96 27.7,1989.98 -258.4,2406.78 153.9,-102.4 297.7,-219.4 429.4,-350.9 214.4,-244.6 383.6,-527.62 506,-844.62 1.3,-4.59 3,-9.08 5.1,-13.46 162.1,-425.77 240.3,-912.38 230.4,-1449.2 -105.8,10.77 -215.7,16.47 -329.5,16.47 -37.8,0 -69.9,-24.45 -81.3,-58.46"
           style="fill:#b2b2d4;fill-opacity:1;fill-rule:nonzero;stroke:none"
           id="path230" /></g><g
         id="g232"
         transform="scale(1.80644)"><path
           d="m 16300,10773.5 c -138.1,137.9 -288.9,260.5 -450.2,367.9 -23.6,34.3 -46,65.4 -66.7,93 77,-53.3 151,-110.2 222.1,-170.6 50.5,-42.9 99.2,-87.4 146.3,-133.4 2.7,-3.1 5.7,-6 8.8,-8.7 48.4,-47.7 95,-97.2 139.7,-148.2"
           style="fill:#b2b2d4;fill-opacity:1;fill-rule:nonzero;stroke:none"
           id="path234" /></g><g
         id="g236"
         transform="scale(1.90378)"><path
           d="m 16289.3,7917.73 c -28.1,3.62 -56.5,6.93 -85.2,9.82 9.9,533.99 -67.9,1018.03 -229.1,1441.55 1.5,-3.2 3.3,-6.3 5.3,-9.35 16.3,-25.21 43.7,-38.92 71.7,-38.92 9.9,0 19.9,1.73 29.5,5.3 143.8,-406.66 218.5,-876.2 207.8,-1408.4 m -319.4,1464.76 c -121.8,315.33 -290.1,596.82 -503.3,840.21 -42.4,48.3 -86.7,95.3 -132.6,140.6 15.6,-13.4 35.4,-20.5 55.5,-20.5 15.9,0 32,4.5 46.4,13.8 4.9,3.2 9.9,6.3 14.8,9.5 89.9,-94.2 173.9,-195.6 251.2,-304 0,0 -0.1,0.1 -0.2,0.1 l 37.7,-173.82 266.1,-410.55 c 0,0 0,0 -0.1,-0.05 -32.3,-20.96 -45.7,-60.09 -35.5,-95.29 m -644.3,989.01 c -44.6,43.7 -90.8,85.9 -138.8,126.6 -67.4,57.3 -137.7,111.3 -210.7,161.9 -72.4,96.9 -122.4,149.6 -122.4,149.6 l 43.1,4.2 c 153.7,-95 297.9,-203.9 430.9,-326.7 -26.7,-28 -31.8,-71.5 -9.9,-105.3 2.4,-3.7 5,-7.1 7.8,-10.3"
           style="fill:#000072;fill-opacity:1;fill-rule:nonzero;stroke:none"
           id="path238" /></g><g
         id="g240"
         transform="scale(1.94596)"><path
           d="m 16300,7588.66 c -243.3,58.32 -566.4,99.07 -846.9,126.21 11.1,33.09 42.4,56.88 79.2,56.88 110.6,0 217.6,-5.55 320.6,-16.03 28.1,-2.83 55.8,-6.06 83.3,-9.61 -0.5,-27.8 -1.4,-55.75 -2.4,-83.92 128.6,-17.01 250.9,-41.98 366.2,-73.53"
           style="fill:#000072;fill-opacity:1;fill-rule:nonzero;stroke:none"
           id="path242" /></g><g
         id="g244"
         transform="scale(1.87826)"><path
           d="m 16270,9447.45 c -28.4,0 -56.1,13.89 -72.6,39.45 -2.1,3.09 -3.8,6.23 -5.4,9.48 -2.2,4.41 -3.9,8.94 -5.2,13.57 -10.3,35.67 3.3,75.34 36.1,96.58 0,0.06 0,0.06 0,0.06 l 47.1,-72.63 c 0,0 0,0.06 0.1,0.06 10.3,-26.78 20.2,-53.83 29.9,-81.19 -9.7,-3.62 -19.9,-5.38 -30,-5.38 m -671.4,1035.95 c -20.4,0 -40.5,7.1 -56.3,20.7 -3,2.5 -5.8,5.3 -8.5,8.3 -2.9,3.2 -5.5,6.7 -7.9,10.4 -22.2,34.3 -17.1,78.4 10,106.8 42.7,-39.6 84.3,-80.4 124.7,-122.7 -5,-3.2 -10,-6.4 -15,-9.7 -14.6,-9.4 -30.9,-13.8 -47,-13.8"
           style="fill:#000072;fill-opacity:1;fill-rule:nonzero;stroke:none"
           id="path246" /></g><g
         id="g248"
         transform="scale(2.07393)"><path
           d="m 15159.8,5484.6 c 550.9,235.45 674.4,868.84 577,1255.4 377,-247.26 563.2,-583.87 484.1,-871.58 -160.3,-221.66 -538.4,-357.78 -1061.1,-383.82"
           style="fill:#433b78;fill-opacity:1;fill-rule:nonzero;stroke:none"
           id="path250" /></g><g
         id="g252"
         transform="scale(2.07807)"><path
           d="m 16188.6,5856.74 c 79,287.14 -106.9,623.08 -483.1,869.85 -13.7,54.33 -31.8,103.79 -53.6,146.53 254.9,-132.1 437.7,-301.92 535.3,-471.02 102.9,-178.29 112.8,-357.44 27.9,-504.55 -8,-13.91 -16.9,-27.53 -26.5,-40.81"
           style="fill:#807cab;fill-opacity:1;fill-rule:nonzero;stroke:none"
           id="path254" /></g><g
         id="g256"
         transform="scale(2.14042)"><path
           d="m 14505.8,5233.83 h -131.1 c 117.7,13.22 222.1,41.11 314.1,80.4 506.6,25.23 872.8,157.12 1028.2,371.89 9.3,12.89 17.9,26.12 25.7,39.62 82.4,142.82 72.8,316.76 -27.1,489.85 -94.8,164.18 -272.2,329.05 -519.7,457.3 -33.4,65.31 -75.9,114.55 -125.3,140.95 -0.9,0.42 -1.6,0.89 -2.5,1.31 1090.7,-444.07 1231.9,-1581.32 -562.3,-1581.32"
           style="fill:#000072;fill-opacity:1;fill-rule:nonzero;stroke:none"
           id="path258" /></g><g
         id="g260"
         transform="scale(1.84014)"><path
           d="m 16300,6176.26 h -3891.7 c 298.4,73.91 518.8,181.95 660.7,324 48.3,44.18 94.9,91.68 139.8,141.73 100.5,-17.5 204,-37.55 311,-60.37 0,0 394.6,-49.24 823.5,-49.24 339.5,-0.05 700.4,30.81 904.5,141.35 57.3,31.03 109.9,44.56 160,44.56 260.9,0 453.4,-367.2 892.2,-542.03"
           style="fill:#b2b2d4;fill-opacity:1;fill-rule:nonzero;stroke:none"
           id="path262" /></g><g
         id="g264"
         transform="scale(1.49117)"><path
           d="m 16127.5,8021.51 c 56,55.93 102.1,116.22 138.4,180.8 11.4,-1.95 22.6,-3.89 34.1,-5.9 -55.3,-61.77 -112.9,-120.38 -172.5,-174.9"
           style="fill:#433b78;fill-opacity:1;fill-rule:nonzero;stroke:none"
           id="path266" /></g><g
         id="g268"
         transform="scale(1.48804)"><path
           d="m 15344.4,7637.68 h -2423.5 c -39.6,1.35 -78.5,3.23 -116.8,5.58 210.2,215.52 832.5,693.66 2213.9,693.66 370.5,0 795.5,-34.34 1282,-117.4 -36.4,-64.72 -82.5,-125.13 -138.6,-181.18 -175.6,-175.66 -448,-309.26 -817,-400.66"
           style="fill:#433b78;fill-opacity:1;fill-rule:nonzero;stroke:none"
           id="path270" /></g><g
         id="g272"
         transform="scale(1.88686)"><path
           d="m 16300,5937.17 h -6111.5 c -55,1.75 -108.1,4.98 -159.2,9.01 l -0.5,0.26 c 0,0 20.8,31.85 69,81.3 30.1,-1.85 60.8,-3.34 92,-4.4 h 1911.3 3795.3 c 115.2,-45.84 247.7,-78.12 403.6,-86.17"
           style="fill:#000072;fill-opacity:1;fill-rule:nonzero;stroke:none"
           id="path274" /></g><g
         id="g276"
         transform="scale(1.91913)"><path
           d="m 16300,5839.06 c -39.6,-1.26 -80.2,-1.72 -121.6,-1.72 46.6,2.18 86.9,2.71 121.6,1.72"
           style="fill:#7a2938;fill-opacity:1;fill-rule:nonzero;stroke:none"
           id="path278" /></g><g
         id="g280"
         transform="scale(1.91918)"><path
           d="m 16178,5824.16 -0.6,26.05 c 45.4,2.14 86.6,2.71 122.5,1.72 l 0.1,-26.05 c -37.3,-1.15 -77.1,-1.72 -122,-1.72"
           style="fill:#000072;fill-opacity:1;fill-rule:nonzero;stroke:none"
           id="path282" /></g><g
         id="g284"
         transform="scale(1.92136)"><path
           d="m 15944,9451.31 c -69.5,164.37 -151.7,319.62 -246.3,465.15 6.6,-0.53 13.2,-0.79 19.8,-0.79 175.3,0 343.7,175.73 377.6,354.93 7.3,-4.3 14.5,-8.7 21.5,-13.2 19.9,-12.8 38.7,-26.8 56.3,-41.9 0.4,-0.7 0.8,-1.3 1.2,-1.9 125.9,-194.2 100.3,-506.01 -230.1,-762.29"
           style="fill:#433b78;fill-opacity:1;fill-rule:nonzero;stroke:none"
           id="path286" /></g><g
         id="g288"
         transform="scale(1.90638)"><path
           d="m 16300,10295.7 c -17.8,15.3 -36.7,29.4 -56.8,42.3 -7,4.6 -14.3,9 -21.6,13.3 1.9,10.2 3.4,20.3 4.4,30.5 28.2,-25.2 53,-54 74,-86.1"
           style="fill:#807cab;fill-opacity:1;fill-rule:nonzero;stroke:none"
           id="path290" /></g><g
         id="g292"
         transform="scale(1.8794)"><path
           d="m 16227.5,9610.2 c -88.5,212.62 -196.6,406.7 -321.9,582.4 46,-33.9 94.4,-51.1 142.6,-54.7 96.8,-148.8 180.8,-307.52 251.8,-475.56 -22.7,-17.66 -46.9,-35.06 -72.5,-52.14"
           style="fill:#000072;fill-opacity:1;fill-rule:nonzero;stroke:none"
           id="path294" /></g><g
         id="g296"
         transform="scale(1.93995)"><path
           d="m 15752.7,9230.85 c -10.3,26.76 -20.9,53.2 -31.7,79.38 24.8,16.55 48.2,33.41 70.2,50.52 327.3,253.82 352.6,562.65 228,754.95 -0.4,0.6 -0.9,1.3 -1.3,1.9 -20.6,31.5 -45,59.8 -72.7,84.6 4,38 1.4,75.7 -8.8,111.5 321.5,-207.6 363.6,-728.2 -183.7,-1082.85"
           style="fill:#000072;fill-opacity:1;fill-rule:nonzero;stroke:none"
           id="path298" /></g><g
         id="g300"
         transform="scale(1.87104)"><path
           d="m 16285.6,9643.69 -270.7,417.71 -38.4,176.9 c 0,0 0.1,-0.1 0.2,-0.1 125.8,-176.5 234.4,-371.48 323.3,-585.05 -4.8,-3.15 -9.6,-6.31 -14.4,-9.46"
           style="fill:#000072;fill-opacity:1;fill-rule:nonzero;stroke:none"
           id="path302" /></g><g
         id="g304"
         transform="scale(1.87482)"><path
           d="m 16299.9,9551.5 -47.2,72.75 c 4.9,3.15 9.7,6.3 14.4,9.44 11.3,-27.09 22.2,-54.46 32.9,-82.14 -0.1,0 -0.1,-0.05 -0.1,-0.05"
           style="fill:#000072;fill-opacity:1;fill-rule:nonzero;stroke:none"
           id="path306" /></g><g
         id="g308"
         transform="scale(1.72967)"
         style="fill:#09a2e3;fill-opacity:1"><path
           d="m 8181.68,15370.3 c -0.29,1.6 1.85,8.7 1.56,10.3 18.79,56.6 34.69,91.1 53.94,144.5 16.13,42.9 26.02,93 43.71,136.1 4.86,10.8 32.84,72.4 41.69,89 31.51,60.5 59.2,123.6 94.18,183.1 1.61,0.3 2.13,7 1.85,8.7 0,0 -2.14,3 -3.76,2.7 -1.62,-0.3 -10,-0.1 -11.91,1.3 -87.19,-18.2 -178.94,-28.8 -267.74,-37.2 -10.06,0 -50.88,-5.4 -54.52,15.8 l -45.96,221.1 c -6.88,30.6 35.61,36.1 53.24,40.8 l 578.9,113.5 c 38.45,-0.1 40.41,-21.5 59.72,-46.7 0.29,-1.6 11.68,-9.7 12.26,-12.9 25.61,-42.4 27.93,-95.5 35.67,-141 3.88,-22.7 -7.17,-36.3 -17.11,-56.4 -26.59,-69.7 -46.19,-121.5 -80.88,-192.5 -72.27,-105.9 -105.69,-233.6 -161.65,-346.7 0,0 0.29,-1.6 0.58,-3.3 1.38,-8.1 11.39,-8 16.53,-8.8 8.09,1.4 40.59,6.9 48.74,8.3 30.06,5.1 59.55,13.4 88.74,22.1 14.8,4.5 29.6,9 44.46,13.4 7.17,2 14.98,5.3 22.38,6.3 5.49,0.7 11.97,0 17.57,-0.3 15.5,-0.9 30.76,-5.5 44.06,-13.5 10.75,-6.5 20.18,-15 27.69,-25 3.76,-5 7.63,-10.6 9.89,-16.5 1.73,-4.2 2.19,-9.3 3.29,-13.8 4.97,-20.6 10,-41.1 14.98,-61.7 8.49,-35.2 20.12,-71 25.84,-106.7 4.1,-25.6 4.97,-52.4 -19.08,-69 -21.97,-15.2 -52.03,-14.1 -77.47,-16.5 -30.41,-2.9 -60.82,-5.5 -90.89,-10.7 -11.38,-1.9 -47.11,-8 -50.35,-8.5 -12.78,-2.2 -25.5,-6.1 -38.1,-9.1 -61.92,-14.7 -123.9,-29.4 -185.88,-44.1 -28.32,-6.8 -56.65,-13.5 -84.98,-20.3 -8.96,-2 -17.92,-4.1 -26.83,-6.3 -18.96,-4.8 -42.38,4.4 -58.51,14.6 -30.64,19.5 -34.51,51.8 -40.18,84.8 -0.23,1.7 -9.36,55.3 -12.66,74.8 -1.97,11.3 -10.81,63.3 -13.01,76.3"
           style="fill:#09a2e3;fill-opacity:1;fill-rule:nonzero;stroke:none"
           id="path310" /></g><g
         id="g312"
         transform="scale(1.81867)"
         style="fill:#09a2e3;fill-opacity:1"><path
           d="m 8885.1,15745.6 c 0.27,1.1 3.73,5 4.06,6.1 28.82,30.1 49.11,47.1 77.26,75 23.04,22.1 44.26,50.9 68.35,72.7 6.26,5.4 42.33,35.9 52.89,43.6 38,28.8 74.34,60.4 114.2,87.4 1.16,-0.4 3.47,3.7 3.8,4.8 0,0 -0.5,2.6 -1.59,2.9 -1.11,0.3 -6.33,3 -7.1,4.4 -60.43,14.6 -121.46,35.4 -180.02,56.7 -6.32,3 -33.65,11.9 -29.64,26.3 l 37.23,153.2 c 4.84,21.3 33.26,12.1 45.8,9.8 l 399.08,-101.8 c 24.2,-11.6 19.03,-25.6 23.7,-47.3 -0.33,-1.1 4.45,-9.6 3.8,-11.8 3.46,-34.4 -10.95,-68.6 -19.69,-99.6 -4.34,-15.5 -15.4,-20.7 -27.66,-30.4 -37.66,-36 -65.54,-62.8 -108.7,-97.2 -77.2,-45.2 -136.53,-115.7 -205.7,-170.3 0,0 -0.28,-1.1 -0.61,-2.2 -1.54,-5.5 4.79,-8.5 7.81,-10.6 5.5,-1.5 27.66,-7.7 33.16,-9.3 20.56,-5.8 41.57,-9.4 62.62,-12.6 10.67,-1.7 21.4,-3.2 32.06,-4.9 5.12,-0.8 11,-1.1 15.95,-2.8 3.68,-1.2 7.59,-3.5 10.99,-5.3 9.52,-5.3 17.76,-12.7 23.81,-21.8 4.84,-7.3 8.2,-15.5 9.96,-24 0.82,-4.3 1.59,-9 1.32,-13.4 -0.23,-3.2 -1.44,-6.5 -2.09,-9.7 -3.03,-14.4 -6.05,-28.9 -9.02,-43.4 -5.17,-24.7 -8.58,-50.8 -15.67,-75 -5.06,-17.4 -12.54,-34.5 -32.66,-37.8 -18.42,-3 -37.06,6.7 -53.83,12.8 -20.02,7.3 -39.98,14.7 -60.49,20.5 -7.75,2.1 -32.11,9 -34.31,9.6 -8.74,2.5 -17.92,3.8 -26.72,5.7 -43.5,9.3 -86.99,18.5 -130.48,27.8 -19.85,4.3 -39.76,8.5 -59.66,12.7 -6.27,1.4 -12.48,2.8 -18.8,4 -13.37,2.7 -25.41,15.5 -32.5,26.8 -13.53,21.5 -6.32,43 0.05,65.5 0.33,1.1 10.62,37.6 14.36,50.9 2.2,7.8 12.15,43.2 14.68,52"
           style="fill:#09a2e3;fill-opacity:1;fill-rule:nonzero;stroke:none"
           id="path314" /></g><g
         id="g316"
         transform="scale(1.89296)"
         style="fill:#09a2e3;fill-opacity:1"><path
           d="m 7879.67,15742.1 c -0.27,0.9 0.26,4.9 -0.06,5.8 5.23,32.8 10.89,53.2 16.75,84.3 5.02,25 5.92,53.4 11.83,78.7 1.69,6.4 11.52,42.8 14.95,52.7 11.89,36 21.45,73.3 35.35,109.1 0.89,0.2 0.58,4 0.26,4.9 0,0 -1.48,1.4 -2.33,1.1 -0.89,-0.3 -5.49,-0.9 -6.65,-0.3 -46.28,-17.8 -95.83,-31.8 -143.85,-44.4 -5.55,-0.9 -27.52,-7.5 -31.38,3.8 l -45.06,117.4 c -6.55,16.2 16.32,23.1 25.57,27.2 l 308.09,114.2 c 21.18,3.4 24.14,-8.2 37.03,-20.3 0.32,-0.8 7.29,-4.3 7.87,-6 17.85,-21 23.93,-50 32.22,-74.3 4.18,-12.2 -0.68,-20.6 -4.33,-32.5 -8.4,-40.7 -14.53,-70.9 -27.26,-113.1 -30.21,-64.7 -37.13,-137.9 -57.79,-205.1 0,0 0.32,-0.8 0.58,-1.7 1.48,-4.3 7.03,-3.4 9.93,-3.4 4.34,1.5 21.66,7.5 26.05,8.9 16.06,5.5 31.48,12.7 46.8,20.1 7.72,3.8 15.48,7.6 23.25,11.4 3.75,1.7 7.71,4.2 11.72,5.4 2.96,0.9 6.55,1.1 9.67,1.5 8.61,0.8 17.43,-0.3 25.46,-3.5 6.45,-2.6 12.42,-6.5 17.44,-11.3 2.48,-2.4 5.12,-5.1 6.92,-8.1 1.32,-2.3 2.01,-5 3.06,-7.4 4.54,-10.9 9.14,-21.7 13.73,-32.6 7.82,-18.5 17.44,-37.2 23.78,-56.3 4.54,-13.7 7.4,-28.3 -4.33,-39.7 -10.73,-10.3 -27.32,-12.3 -41.1,-16 -16.43,-4.2 -32.91,-8.4 -49.03,-13.9 -6.07,-2.1 -25.14,-8.7 -26.89,-9.3 -6.81,-2.3 -13.47,-5.6 -20.12,-8.4 -32.76,-13.6 -65.51,-27.2 -98.26,-40.8 -14.95,-6.3 -29.95,-12.5 -44.9,-18.7 -4.71,-2 -9.46,-4 -14.16,-6 -10.04,-4.3 -23.67,-1.3 -33.5,2.8 -18.59,8 -23.61,25.4 -29.69,43.1 -0.26,0.8 -10.08,29.5 -13.62,39.9 -2.12,6.1 -11.62,33.8 -14,40.8"
           style="fill:#09a2e3;fill-opacity:1;fill-rule:nonzero;stroke:none"
           id="path318" /></g></g></g></svg>
